<?xml version="1.0" encoding="UTF-8" standalone="no"?>
<svg
   xmlns:dc="http://purl.org/dc/elements/1.1/"
   xmlns:cc="http://creativecommons.org/ns#"
   xmlns:rdf="http://www.w3.org/1999/02/22-rdf-syntax-ns#"
   xmlns:svg="http://www.w3.org/2000/svg"
   xmlns="http://www.w3.org/2000/svg"
   xml:space="preserve"
   style="enable-background:new 0 0 248.57 248.57;"
   viewBox="0 0 248.57 248.57"
   y="0px"
   x="0px"
   id="Capa_1"
   version="1.1"><metadata
   id="metadata51"><rdf:RDF><cc:Work
       rdf:about=""><dc:format>image/svg+xml</dc:format><dc:type
         rdf:resource="http://purl.org/dc/dcmitype/StillImage" /><dc:title></dc:title></cc:Work></rdf:RDF></metadata><defs
   id="defs49" />
<g
   id="g14">
	<path
   id="path2"
   d="M241.07,42.767h-26.709V17.745c0-4.142-3.358-7.5-7.5-7.5H7.5c-4.142,0-7.5,3.358-7.5,7.5V213.72   c0,13.567,11.038,24.605,24.605,24.605h199.359c13.567,0,24.605-11.038,24.605-24.605V50.267   C248.57,46.125,245.212,42.767,241.07,42.767z M15,25.245h184.361v25.021V213.72c0,3.406,0.696,6.653,1.953,9.605H24.605   c-5.296,0-9.605-4.309-9.605-9.605V25.245z M223.965,223.325c-5.295,0-9.604-4.309-9.604-9.605V57.767h19.209V213.72   C233.57,219.016,229.261,223.325,223.965,223.325z" />
	<path
   id="path4"
   d="M32.422,107.085h149.52c4.142,0,7.5-3.358,7.5-7.5V49.461c0-4.142-3.358-7.5-7.5-7.5H32.422c-4.142,0-7.5,3.358-7.5,7.5   v50.124C24.922,103.727,28.28,107.085,32.422,107.085z M39.922,56.961h134.52v35.124H39.922V56.961z" />
	<path
   id="path6"
   d="M32.422,205.672H97.73c4.142,0,7.5-3.358,7.5-7.5v-65.313c0-4.142-3.358-7.5-7.5-7.5H32.422c-4.142,0-7.5,3.358-7.5,7.5   v65.313C24.922,202.314,28.28,205.672,32.422,205.672z M39.922,140.358H90.23v50.313H39.922V140.358z" />
	<path
   id="path8"
   d="M181.941,125.358h-63.16c-4.142,0-7.5,3.358-7.5,7.5c0,4.142,3.358,7.5,7.5,7.5h63.16c4.142,0,7.5-3.358,7.5-7.5   C189.441,128.716,186.083,125.358,181.941,125.358z" />
	<path
   id="path10"
   d="M181.941,190.672h-63.16c-4.142,0-7.5,3.358-7.5,7.5c0,4.142,3.358,7.5,7.5,7.5h63.16c4.142,0,7.5-3.358,7.5-7.5   C189.441,194.03,186.083,190.672,181.941,190.672z" />
	<path
   id="path12"
   d="M181.941,158.011h-63.16c-4.142,0-7.5,3.358-7.5,7.5c0,4.142,3.358,7.5,7.5,7.5h63.16c4.142,0,7.5-3.358,7.5-7.5   C189.441,161.369,186.083,158.011,181.941,158.011z" />
</g>
<g
   id="g16">
</g>
<g
   id="g18">
</g>
<g
   id="g20">
</g>
<g
   id="g22">
</g>
<g
   id="g24">
</g>
<g
   id="g26">
</g>
<g
   id="g28">
</g>
<g
   id="g30">
</g>
<g
   id="g32">
</g>
<g
   id="g34">
</g>
<g
   id="g36">
</g>
<g
   id="g38">
</g>
<g
   id="g40">
</g>
<g
   id="g42">
</g>
<g
   id="g44">
</g>
<path
   id="path858"
   d="M 20.727133,237.7105 C 13.189338,236.595 6.1250484,231.1429 2.5696178,223.69684 L 0.6060817,219.58465 0.46785656,117.79969 C 0.31537065,5.513501 0.05412516,14.286279 3.6262659,11.738435 L 5.345764,10.511995 H 106.98562 c 100.69422,0 101.65645,0.0098 103.4235,1.053263 3.5302,2.084614 3.74598,3.121805 3.74598,18.005444 v 13.282193 l 14.7082,0.155123 c 13.91539,0.146761 14.78828,0.213914 16.19392,1.245821 0.81714,0.599884 1.90007,1.903297 2.4065,2.896472 0.86525,1.696857 0.92036,6.840429 0.91382,85.276849 -0.007,89.51058 0.0662,86.8862 -2.58446,92.08189 -2.79637,5.48135 -7.95976,9.99538 -14.12815,12.35137 l -3.02746,1.15633 -102.42981,0.0726 C 69.871273,238.12928 22.405034,237.95881 20.727133,237.7105 Z M 201.51025,223.40273 c -0.003,-0.0724 -0.41786,-1.31658 -0.9216,-2.76482 -0.85516,-2.4585 -0.92528,-9.03433 -1.05716,-99.13835 L 199.39023,24.994358 H 106.97602 14.561813 l 0.0029,94.661992 c 0.0019,63.49116 0.182046,95.30689 0.546869,96.6205 0.727567,2.61971 2.887385,5.08786 5.484668,6.26765 2.037744,0.92562 5.932437,0.96725 91.52399,0.97832 49.16762,0.006 89.39311,-0.0477 89.38997,-0.12009 z m 26.20325,-0.67838 c 2.50166,-1.04526 3.69799,-2.15355 4.92974,-4.56696 0.96547,-1.89168 0.99722,-4.47788 0.99722,-81.23288 V 57.645503 h -9.74771 -9.74771 l 0.13669,79.691527 0.13669,79.69154 1.40519,2.12332 c 2.53782,3.83476 7.61272,5.35958 11.88989,3.57246 z"
   style="opacity:1;fill:#ffffff;fill-opacity:1;fill-rule:nonzero;stroke:#ffffff;stroke-width:1.99041784;stroke-linecap:round;stroke-linejoin:round;stroke-miterlimit:4;stroke-dasharray:none;stroke-dashoffset:0;stroke-opacity:1" /><path
   id="path860"
   d="m 28.692329,105.72245 c -0.77281,-0.47946 -1.898485,-1.74959 -2.501499,-2.8225 -1.070269,-1.90429 -1.09639,-2.58015 -1.09639,-28.36844 0,-28.945088 -0.09542,-28.021843 3.18128,-30.779008 l 1.639215,-1.379309 76.979435,0.002 c 75.3728,0.0019 77.01456,0.02338 78.66237,1.028121 3.71757,2.266747 3.56676,1.059481 3.73388,29.891017 0.0983,16.951939 -0.0414,26.67851 -0.40231,28.018859 -0.33059,1.22772 -1.29823,2.70753 -2.40702,3.68106 l -1.85419,1.628 -77.26483,-0.014 c -70.96997,-0.0129 -77.379307,-0.085 -78.669941,-0.88576 z M 174.65775,74.497707 V 56.592241 H 107.24893 39.840119 v 17.905466 17.905467 h 67.408811 67.40882 z"
   style="opacity:1;fill:#ffffff;fill-opacity:1;fill-rule:nonzero;stroke:#ffffff;stroke-width:1.99041784;stroke-linecap:round;stroke-linejoin:round;stroke-miterlimit:4;stroke-dasharray:none;stroke-dashoffset:0;stroke-opacity:1" /><path
   id="path862"
   d="m 116.46498,139.54208 c -6.42107,-2.29915 -6.48415,-10.97953 -0.0974,-13.39942 0.99232,-0.37598 12.31098,-0.56144 34.23104,-0.56089 30.12994,7.5e-4 32.89447,0.0744 34.57381,0.9216 4.91816,2.48101 5.11374,9.67778 0.34151,12.56696 -1.55442,0.94107 -3.34726,0.99908 -34.29132,1.1095 -27.22202,0.0971 -33.00141,-0.009 -34.75767,-0.63775 z"
   style="opacity:1;fill:#ffffff;fill-opacity:1;fill-rule:nonzero;stroke:#ffffff;stroke-width:1.99041784;stroke-linecap:round;stroke-linejoin:round;stroke-miterlimit:4;stroke-dasharray:none;stroke-dashoffset:0;stroke-opacity:1" /><path
   id="path864"
   d="m 30.097439,204.84415 c -2.425704,-0.8683 -4.344821,-2.99363 -4.760029,-5.27149 -0.15839,-0.86894 -0.218608,-16.78889 -0.133818,-35.37765 0.151582,-33.23166 0.172433,-33.82266 1.244862,-35.28431 2.528164,-3.4457 1.161873,-3.32811 38.669971,-3.32811 37.508015,0 36.141745,-0.11759 38.669975,3.32805 1.07278,1.46206 1.09315,2.04582 1.24029,35.54761 0.16814,38.28066 0.24644,37.38641 -3.47659,39.70145 l -1.93932,1.2059 -33.704408,0.1163 c -28.130574,0.0971 -34.052773,-0.008 -35.810933,-0.63775 z m 60.299292,-39.23922 v -25.2783 H 65.118425 39.840119 v 25.2783 25.27831 h 25.278306 25.278306 z"
   style="opacity:1;fill:#ffffff;fill-opacity:1;fill-rule:nonzero;stroke:#ffffff;stroke-width:1.99041784;stroke-linecap:round;stroke-linejoin:round;stroke-miterlimit:4;stroke-dasharray:none;stroke-dashoffset:0;stroke-opacity:1" /><path
   id="path866"
   d="m 116.46498,172.19322 c -6.42107,-2.29914 -6.48415,-10.97953 -0.0974,-13.39941 0.99232,-0.37598 12.31098,-0.56144 34.23104,-0.5609 30.12994,7.6e-4 32.89447,0.0744 34.57381,0.92161 4.91816,2.48101 5.11374,9.67777 0.34151,12.56695 -1.55442,0.94107 -3.34726,0.99908 -34.29132,1.10951 -27.22202,0.0971 -33.00141,-0.009 -34.75767,-0.63776 z"
   style="opacity:1;fill:#ffffff;fill-opacity:1;fill-rule:nonzero;stroke:#ffffff;stroke-width:1.99041784;stroke-linecap:round;stroke-linejoin:round;stroke-miterlimit:4;stroke-dasharray:none;stroke-dashoffset:0;stroke-opacity:1" /><path
   id="path868"
   d="m 116.46498,204.84437 c -6.42107,-2.29915 -6.48415,-10.97953 -0.0974,-13.39942 0.99232,-0.37598 12.31098,-0.56144 34.23104,-0.56089 30.12994,7.5e-4 32.89447,0.0744 34.57381,0.9216 4.91816,2.48101 5.11374,9.67778 0.34151,12.56696 -1.55442,0.94107 -3.34726,0.99908 -34.29132,1.1095 -27.22202,0.0971 -33.00141,-0.009 -34.75767,-0.63775 z"
   style="opacity:1;fill:#ffffff;fill-opacity:1;fill-rule:nonzero;stroke:#ffffff;stroke-width:1.99041784;stroke-linecap:round;stroke-linejoin:round;stroke-miterlimit:4;stroke-dasharray:none;stroke-dashoffset:0;stroke-opacity:1" /></svg>