<?xml version="1.0" encoding="UTF-8" standalone="no"?>
<svg
   xmlns:dc="http://purl.org/dc/elements/1.1/"
   xmlns:cc="http://creativecommons.org/ns#"
   xmlns:rdf="http://www.w3.org/1999/02/22-rdf-syntax-ns#"
   xmlns:svg="http://www.w3.org/2000/svg"
   xmlns="http://www.w3.org/2000/svg"
   id="svg8"
   version="1.1"
   viewBox="0 0 211.66667 158.75"
   height="600"
   width="800">
  <defs
     id="defs2" />
  <metadata
     id="metadata5">
    <rdf:RDF>
      <cc:Work
         rdf:about="">
        <dc:format>image/svg+xml</dc:format>
        <dc:type
           rdf:resource="http://purl.org/dc/dcmitype/StillImage" />
        <dc:title></dc:title>
      </cc:Work>
    </rdf:RDF>
  </metadata>
  <g
     transform="translate(0,-138.25001)"
     id="layer1">
    <rect
       y="138.47597"
       x="0.22595723"
       height="158.2981"
       width="211.21475"
       id="rect5684"
       style="fill:#147d85;fill-opacity:0.95754718;stroke:#ffffff;stroke-width:0.45190901;stroke-opacity:0.98113248" />
    <path
       id="path5663"
       d="m 76.540212,280.61727 c 0,-2.98915 10.8376,-11.56123 19.40811,-15.35101 l 8.994028,-3.97709 -0.11574,-17.42605 c -0.0738,-11.13169 -1.31941,-21.18772 -3.44812,-27.84019 l -3.332378,-10.41412 -3.17908,10.70554 c -1.74853,5.88806 -3.17909,11.70194 -3.17909,12.91982 0,1.21782 -1.49111,1.93023 -3.3136,1.58303 -2.73577,-0.52108 -3.50878,-3.4342 -4.43313,-16.70673 -0.67892,-9.74835 -2.60148,-19.40072 -4.88467,-24.5238 l -3.76513,-8.44823 -5.05608,11.04389 c -4.0307,8.80424 -5.05603,13.88946 -5.05603,25.07559 0,10.99336 -0.64257,14.27822 -2.96752,15.17043 -4.82226,1.8505 -7.39858,-2.6513 -7.42335,-12.97128 -0.028,-11.72773 -1.50207,-12.58933 -21.79825,-12.74258 -24.1650701,-0.18243 -22.7217,-1.93049 -22.7217,27.51734 0,16.59949 -0.6928401,25.34108 -2.0085101,25.34108 -2.3903,0 -2.08632,-49.45748 0.32819,-53.35835 1.13989,-1.84174 7.2406501,-2.47906 23.1900101,-2.42257 26.79864,0.0949 28.44468,1.04497 26.65322,15.38369 -0.86492,6.92235 -0.59756,10.10159 0.8495,10.10159 1.4116,0 2.11165,-6.24013 2.11165,-18.82302 0,-10.5062 0.83663,-19.34007 1.89349,-19.99324 1.04143,-0.64363 1.91217,0.37119 1.93504,2.2551 0.0934,7.69947 7.1239,-12.87363 8.56861,-25.07437 l 1.55792,-13.15676 1.29062,10.86449 c 2.28179,19.20881 8.66852,36.69381 9.73193,26.6434 0.19959,-1.88394 0.83842,4.66927 1.4201,14.56269 1.05278,17.90448 1.06905,17.95284 3.50174,10.41411 1.34424,-4.16564 3.44532,-15.66851 4.66902,-25.56192 l 2.22498,-17.98802 2.217378,17.98802 c 1.21956,9.89341 3.7128,23.24607 5.54054,29.67255 l 3.32316,11.68462 12.51215,0.623 c 18.90637,0.94147 26.69057,-0.17108 26.84136,-3.83618 0.0934,-2.26882 0.68618,-1.95768 2.18283,1.14564 1.14167,2.36727 3.81913,4.2871 6.02561,4.32054 2.18406,0.0335 5.62496,1.31125 7.64649,2.84021 2.02147,1.52902 5.21671,2.78 7.10053,2.78 1.88377,0 3.42503,0.7687 3.42503,1.70826 0,0.93951 2.34318,2.55022 5.20704,3.5793 2.86392,1.02907 8.12978,4.52069 11.7019,7.75915 3.57219,3.2384 8.18753,5.88807 10.25636,5.88807 2.06877,0 3.30784,0.45343 2.7535,1.008 -0.55463,0.55462 -10.92867,0.0391 -23.05387,-1.1447 -37.15122,-3.62759 -71.48291,2.19782 -94.438148,16.02434 -5.9881,3.60679 -10.88747,5.92727 -10.88747,5.15672 z m -33.54102,-42.81936 c 0.0168,-5.20703 0.38187,-7.11249 0.81718,-4.23426 0.43498,2.87817 0.4238,7.13849 -0.0279,9.46736 -0.44952,2.32887 -0.8055,-0.028 -0.79129,-5.2331 z m -21.36981,-0.94671 c 0,-4.16567 0.85207,-7.57393 1.8935,-7.57393 1.04143,0 1.89349,3.40826 1.89349,7.57393 0,4.1656 -0.85206,7.57387 -1.89349,7.57387 -1.04143,0 -1.8935,-3.40827 -1.8935,-7.57387 z"
       style="fill:#ffffff;stroke-width:1.89347565;stroke:#ffffff;stroke-opacity:0.98113209;fill-opacity:1" />
  </g>
</svg>
