<?xml version="1.0" encoding="UTF-8" standalone="no"?>
<svg
   xmlns:dc="http://purl.org/dc/elements/1.1/"
   xmlns:cc="http://creativecommons.org/ns#"
   xmlns:rdf="http://www.w3.org/1999/02/22-rdf-syntax-ns#"
   xmlns:svg="http://www.w3.org/2000/svg"
   xmlns="http://www.w3.org/2000/svg"
   id="svg12"
   version="1.1"
   viewBox="0 0 800 600.00001"
   width="800"
   height="600">
  <metadata
     id="metadata18">
    <rdf:RDF>
      <cc:Work
         rdf:about="">
        <dc:format>image/svg+xml</dc:format>
        <dc:type
           rdf:resource="http://purl.org/dc/dcmitype/StillImage" />
        <dc:title></dc:title>
      </cc:Work>
    </rdf:RDF>
  </metadata>
  <defs
     id="defs16" />
  <g
     transform="matrix(4.1049501,0,0,4.1049501,10.091313,-1865.0347)"
     id="g854">
    <g
       id="g4"
       style="fill:#0b6ba7"
       transform="translate(0,558)">
      <path
         d="m 83.922,11.23 h 2.45 v 3.523 h 0.085 c 0.59,-1.295 1.605,-2.266 3,-2.985 1.395,-0.719 2.998,-1.078 4.772,-1.078 1.647,0 3.083,0.287 4.308,0.79 1.225,0.54 2.24,1.26 3.084,2.158 0.802,0.9 1.394,1.94 1.816,3.128 0.38,1.186 0.55,2.445 0.592,3.74 0,1.33 -0.212,2.588 -0.592,3.774 -0.422,1.187 -1.014,2.23 -1.816,3.128 -0.845,0.9 -1.86,1.618 -3.084,2.122 -1.224,0.504 -2.66,0.755 -4.31,0.755 -0.8,0 -1.604,-0.072 -2.364,-0.252 -0.803,-0.144 -1.52,-0.396 -2.197,-0.755 -0.676,-0.324 -1.31,-0.755 -1.816,-1.258 -0.506,-0.503 -0.928,-1.08 -1.182,-1.762 h -0.084 v 10.355 h -2.662 z m 17.446,9.275 c 0,-0.935 -0.17,-1.905 -0.422,-2.84 -0.252,-0.935 -0.676,-1.798 -1.267,-2.553 -0.593,-0.72 -1.31,-1.33 -2.198,-1.798 -0.93,-0.467 -1.985,-0.72 -3.253,-0.72 -1.48,0 -2.704,0.217 -3.676,0.648 -1.013,0.432 -1.774,1.007 -2.365,1.726 -0.591,0.719 -1.015,1.582 -1.268,2.517 -0.254,0.97 -0.338,1.977 -0.338,3.02 0,0.97 0.126,1.942 0.38,2.876 0.254,0.934 0.718,1.8 1.31,2.518 0.59,0.755 1.393,1.367 2.365,1.834 0.972,0.467 2.153,0.683 3.59,0.683 1.267,0 2.323,-0.216 3.252,-0.683 0.887,-0.467 1.605,-1.08 2.197,-1.834 0.59,-0.72 1.012,-1.582 1.266,-2.517 0.254,-0.935 0.422,-1.904 0.422,-2.875 z m 16.01,-7.838 c -1.267,0 -2.408,0.252 -3.337,0.683 -0.97,0.468 -1.773,1.08 -2.407,1.798 -0.633,0.755 -1.098,1.618 -1.436,2.553 -0.338,0.935 -0.465,1.906 -0.465,2.877 0,1.007 0.127,1.978 0.465,2.912 0.338,0.934 0.803,1.797 1.436,2.516 0.634,0.755 1.436,1.366 2.408,1.798 0.93,0.467 2.07,0.683 3.338,0.683 1.268,0 2.366,-0.216 3.337,-0.683 0.93,-0.432 1.732,-1.043 2.366,-1.798 0.634,-0.72 1.1,-1.582 1.437,-2.517 0.337,-0.935 0.465,-1.906 0.507,-2.913 0,-0.97 -0.17,-1.94 -0.507,-2.876 -0.337,-0.936 -0.803,-1.797 -1.436,-2.552 -0.633,-0.72 -1.436,-1.33 -2.365,-1.798 -0.97,-0.43 -2.07,-0.647 -3.337,-0.683 z m 0,-1.905 c 1.647,0 3.126,0.287 4.393,0.79 1.268,0.54 2.367,1.26 3.254,2.122 0.845,0.9 1.52,1.94 1.985,3.128 0.422,1.186 0.675,2.445 0.675,3.775 0,1.366 -0.253,2.625 -0.676,3.81 -0.465,1.188 -1.14,2.23 -1.986,3.093 -0.887,0.9 -1.986,1.618 -3.253,2.122 -1.267,0.504 -2.745,0.755 -4.392,0.755 -1.69,0 -3.168,-0.252 -4.435,-0.755 -1.267,-0.503 -2.366,-1.223 -3.21,-2.122 -0.888,-0.863 -1.564,-1.905 -1.986,-3.092 -0.465,-1.186 -0.676,-2.445 -0.676,-3.81 0,-1.33 0.212,-2.59 0.677,-3.776 0.422,-1.187 1.098,-2.23 1.985,-3.128 0.845,-0.863 1.943,-1.582 3.21,-2.12 1.268,-0.505 2.746,-0.792 4.436,-0.792 z m 14.278,0.468 h 2.45 v 4.35 h 0.084 c 0.676,-1.51 1.69,-2.66 3.126,-3.488 1.437,-0.79 3.126,-1.187 5.112,-1.115 v 2.265 c -1.225,-0.036 -2.324,0.108 -3.295,0.432 -1.014,0.323 -1.86,0.79 -2.577,1.366 -0.718,0.61 -1.267,1.33 -1.648,2.157 -0.422,0.827 -0.59,1.726 -0.59,2.697 v 9.887 h -2.662 z m 17.53,0 h 4.436 v 1.905 h -4.436 v 12.512 c 0,0.755 0.085,1.33 0.338,1.76 0.253,0.43 0.845,0.648 1.817,0.684 0.76,0 1.52,-0.035 2.282,-0.106 v 1.905 c -0.423,0 -0.803,0.035 -1.183,0.035 -0.424,0.036 -0.804,0.036 -1.184,0.036 -1.774,0 -3.04,-0.287 -3.717,-0.862 -0.72,-0.575 -1.057,-1.69 -1.015,-3.272 v -12.69 h -3.802 V 11.23 h 3.802 V 5.655 h 2.66 v 5.573 z m 8.068,5.752 c 0.085,-1.08 0.338,-2.014 0.803,-2.805 0.423,-0.79 1.056,-1.438 1.817,-1.94 0.761,-0.502 1.69,-0.864 2.745,-1.116 1.013,-0.215 2.196,-0.358 3.463,-0.358 0.93,0 1.9,0.107 2.873,0.25 0.93,0.145 1.816,0.433 2.576,0.864 0.76,0.431 1.352,1.043 1.86,1.834 0.464,0.79 0.717,1.798 0.717,3.02 v 9.85 c 0,0.936 0.506,1.368 1.562,1.368 0.296,0 0.59,-0.036 0.845,-0.144 v 1.905 c -0.338,0.07 -0.592,0.107 -0.845,0.107 -0.253,0.036 -0.55,0.036 -0.887,0.036 -0.676,0 -1.225,-0.072 -1.648,-0.216 -0.423,-0.144 -0.718,-0.395 -0.93,-0.683 -0.252,-0.287 -0.38,-0.61 -0.463,-1.006 -0.083,-0.396 -0.085,-0.827 -0.085,-1.33 h -0.085 c -0.507,0.61 -0.972,1.15 -1.48,1.617 -0.508,0.467 -1.055,0.863 -1.646,1.15 -0.593,0.324 -1.31,0.576 -2.07,0.72 -0.762,0.18 -1.69,0.252 -2.747,0.252 -1.014,0 -1.985,-0.072 -2.872,-0.288 -0.887,-0.216 -1.647,-0.54 -2.323,-0.972 -0.676,-0.432 -1.183,-1.007 -1.563,-1.69 -0.38,-0.683 -0.55,-1.51 -0.55,-2.445 0,-1.294 0.34,-2.3 1.015,-3.02 0.675,-0.72 1.562,-1.294 2.66,-1.69 1.1,-0.36 2.366,-0.647 3.76,-0.79 1.394,-0.143 2.83,-0.324 4.266,-0.468 0.55,-0.036 1.056,-0.108 1.48,-0.18 0.38,-0.072 0.76,-0.18 1.055,-0.36 0.254,-0.18 0.465,-0.43 0.634,-0.754 0.17,-0.287 0.212,-0.718 0.254,-1.222 0,-0.755 -0.17,-1.366 -0.465,-1.87 -0.295,-0.504 -0.718,-0.898 -1.225,-1.186 -0.507,-0.288 -1.14,-0.467 -1.816,-0.575 -0.676,-0.108 -1.437,-0.18 -2.197,-0.18 -1.69,0 -3.084,0.36 -4.14,1.043 -1.098,0.683 -1.647,1.762 -1.69,3.272 h -2.66 z m 14.194,2.732 h -0.085 c -0.17,0.288 -0.507,0.468 -0.97,0.575 -0.508,0.143 -0.93,0.215 -1.268,0.25 -1.14,0.18 -2.324,0.325 -3.507,0.47 -1.183,0.145 -2.28,0.322 -3.252,0.574 -1.014,0.287 -1.817,0.647 -2.45,1.15 -0.633,0.503 -0.93,1.187 -0.93,2.086 0,0.575 0.127,1.114 0.38,1.546 0.253,0.432 0.634,0.827 1.1,1.15 0.42,0.324 0.97,0.575 1.562,0.72 0.59,0.18 1.183,0.25 1.816,0.25 1.014,0 1.986,-0.107 2.915,-0.395 0.928,-0.25 1.73,-0.646 2.407,-1.15 0.677,-0.504 1.225,-1.114 1.647,-1.833 0.422,-0.719 0.592,-1.51 0.634,-2.445 v -2.948 z m 8.026,-15.316 h 2.66 v 3.63 h -2.66 V 4.4 Z m 0,7.12 h 2.66 v 18.55 h -2.66 V 11.52 Z m 7.856,-7.12 h 2.662 v 25.67 h -2.66 V 4.4 Z"
         id="path2" />
    </g>
    <path
       d="m 13.547,585.768 q -1.742,0 -2.904,-0.63 -1.162,-0.63 -1.9,-1.617 -0.687,-0.988 -1.004,-2.2 -0.265,-1.26 -0.265,-2.518 0,-1.304 0.317,-2.472 0.37,-1.214 1.11,-2.112 0.79,-0.944 1.9,-1.483 1.16,-0.54 2.745,-0.54 1.848,0 3.063,0.584 1.215,0.584 1.953,1.572 0.738,0.988 1.057,2.293 0.316,1.258 0.316,2.696 0,1.26 -0.422,2.428 -0.37,1.124 -1.162,2.022 -0.792,0.898 -2.006,1.44 -1.214,0.542 -2.8,0.538 z m 13.518,4 v -21.752 h -7.13 v 3.1 h -0.104 q -1.372,-2.022 -3.43,-2.876 -2.008,-0.854 -4.7,-0.854 -2.852,0 -5.07,0.944 -2.165,0.944 -3.643,2.562 -1.48,1.573 -2.27,3.685 -0.74,2.068 -0.74,4.315 0,2.382 0.634,4.54 0.687,2.11 2.113,3.73 1.425,1.572 3.643,2.516 2.218,0.9 5.28,0.9 2.482,0 4.7,-0.855 2.27,-0.9 3.485,-2.742 h 0.106 v 3.057 q 0.053,2.472 -1.425,4.09 -1.425,1.618 -4.593,1.618 -2.007,0 -3.538,-0.72 -1.532,-0.673 -2.06,-2.47 H 0.875 q 0.158,1.977 1.267,3.37 1.162,1.438 2.85,2.337 1.744,0.9 3.803,1.303 2.112,0.45 4.12,0.45 4.698,0 7.497,-1.08 2.799,-1.08 4.277,-2.65 1.477,-1.53 1.9,-3.326 0.475,-1.8 0.475,-3.192 z"
       id="path6"
       style="fill:#4fafdf" />
    <path
       d="m 41.427,564.195 8.132,-6.38 h -8.29 l -5.07,6.38 h 5.227 z m 4.805,12 H 34.035 q 0.052,-0.674 0.316,-1.528 0.318,-0.854 1.005,-1.618 0.74,-0.765 1.9,-1.26 1.215,-0.54 3.01,-0.54 2.746,0 4.066,1.26 1.374,1.258 1.902,3.685 z M 34.035,580.24 H 53.73 q 0.21,-2.697 -0.528,-5.168 -0.738,-2.471 -2.43,-4.405 -1.636,-1.932 -4.223,-3.056 -2.59,-1.167 -6.074,-1.167 -3.115,0 -5.702,0.943 -2.535,0.944 -4.383,2.607 -1.847,1.618 -2.85,3.865 -1.003,2.247 -1.003,4.854 0,2.696 0.95,4.944 1.003,2.247 2.8,3.865 1.797,1.618 4.38,2.517 2.59,0.854 5.81,0.854 4.646,0 7.92,-1.796 3.274,-1.796 4.858,-5.978 h -6.6 q -0.37,1.08 -2.007,2.068 -1.637,0.943 -3.907,0.943 -3.168,0 -4.857,-1.393 -1.689,-1.393 -1.848,-4.494 z"
       id="path8"
       style="fill:#00b798" />
    <path
       d="m 60.14,578.937 q 0,-1.394 0.317,-2.742 0.317,-1.348 1.056,-2.382 0.792,-1.034 2.06,-1.663 1.267,-0.674 3.167,-0.674 1.9,0 3.17,0.674 1.32,0.63 2.058,1.663 0.792,1.034 1.11,2.382 0.318,1.348 0.316,2.742 -0.002,1.394 -0.317,2.74 -0.317,1.304 -1.11,2.383 -0.738,1.034 -2.058,1.663 -1.27,0.63 -3.17,0.63 -1.9,0 -3.168,-0.63 -1.268,-0.63 -2.06,-1.663 -0.738,-1.08 -1.055,-2.382 -0.317,-1.348 -0.317,-2.74 z m -7.498,0 q 0,2.786 1.003,5.033 1.003,2.247 2.852,3.865 1.848,1.573 4.435,2.427 2.587,0.854 5.808,0.854 3.221,0 5.81,-0.854 2.64,-0.854 4.487,-2.427 1.848,-1.618 2.85,-3.865 1.002,-2.247 1.005,-5.033 0.003,-2.786 -1.004,-5.034 -1.003,-2.292 -2.85,-3.865 -1.85,-1.618 -4.49,-2.472 -2.587,-0.9 -5.808,-0.9 -3.221,0 -5.808,0.9 -2.587,0.854 -4.435,2.472 -1.848,1.573 -2.852,3.865 -1.003,2.247 -1.003,5.034 z"
       id="path10"
       style="fill:#f79f23" />
  </g>
  <g
     transform="matrix(6.5217391,0,0,6.5217391,-804.32339,-614.99629)"
     id="g847">
    <path
       style="fill:#ffffff"
       d="m 138.66292,94.299431 h 92 v 31.566999 h -92 z"
       id="path2-3" />
    <path
       d="m 212.13092,149.26343 c -0.05,-0.02 -0.053,-0.077 -0.01,-0.2 0.053,-0.158 0.078,-0.17 0.286,-0.142 0.188,0.025 0.244,0.007 0.322,-0.107 0.152,-0.22 0.035,-0.377 -0.24,-0.325 -0.21,0.04 -0.214,0.038 -0.173,-0.126 0.13,-0.522 0.14,-0.493 -0.243,-0.57 -0.457,-0.092 -0.894,-0.352 -1.23,-0.73 -0.505,-0.57 -0.68,-1.146 -0.63,-2.072 0.026,-0.472 0.066,-0.656 0.212,-0.984 0.45,-1.003 1.473,-1.515 2.85,-1.423 0.298,0.02 0.677,0.07 0.84,0.114 l 0.3,0.077 0.017,0.562 0.017,0.56 h -0.182 c -0.107,0 -0.182,-0.03 -0.182,-0.077 0,-0.158 -0.366,-0.522 -0.625,-0.623 -0.335,-0.13 -0.983,-0.1 -1.308,0.06 -0.743,0.364 -1.08,1.312 -0.856,2.392 0.105,0.502 0.28,0.84 0.61,1.185 0.314,0.328 0.63,0.46 1.106,0.462 0.502,0 0.853,-0.204 1.074,-0.627 0.15,-0.288 0.204,-0.323 0.35,-0.23 0.067,0.044 0.067,0.143 0.003,0.604 l -0.077,0.553 -0.273,0.095 c -0.15,0.053 -0.495,0.113 -0.766,0.133 -0.467,0.034 -0.493,0.044 -0.493,0.18 0,0.107 0.033,0.142 0.136,0.142 0.2,0 0.387,0.157 0.432,0.36 0.05,0.24 -0.115,0.59 -0.334,0.705 -0.157,0.083 -0.772,0.115 -0.93,0.05 z m -35.59,-0.255 c -0.517,-0.156 -0.963,-0.39 -1.5,-0.787 l -0.465,-0.343 -0.717,-0.037 c -0.796,-0.042 -1.074,-0.132 -1.59,-0.516 -1.133,-0.844 -1.175,-2.995 -0.077,-4.04 0.826,-0.79 2.28,-0.952 3.327,-0.374 1.413,0.78 1.563,3.083 0.28,4.29 -0.2,0.187 -0.395,0.34 -0.434,0.34 -0.123,0 1.283,0.78 1.694,0.94 0.454,0.177 0.985,0.2 1.374,0.062 0.283,-0.102 0.332,-0.09 0.38,0.095 0.027,0.107 -0.022,0.153 -0.308,0.287 -0.45,0.212 -1.396,0.252 -1.963,0.082 z m -1.753,-1.877 c 1.002,-0.53 1.192,-2.232 0.372,-3.318 -0.76,-1.006 -2.093,-0.854 -2.593,0.297 -0.453,1.04 0.063,2.647 0.987,3.072 0.374,0.172 0.85,0.153 1.235,-0.05 z m -31.438,0.63 c -0.275,-0.122 -0.577,-0.5 -1.053,-1.322 -0.732,-1.26 -0.87,-1.446 -1.073,-1.446 h -0.176 v 0.682 c 0.003,1.247 0.126,1.674 0.514,1.772 0.103,0.027 0.144,0.08 0.144,0.187 v 0.15 h -2.453 v -0.142 c 0,-0.108 0.045,-0.156 0.187,-0.198 0.104,-0.03 0.245,-0.132 0.314,-0.226 0.124,-0.167 0.127,-0.228 0.127,-2.53 0,-2.302 -0.003,-2.363 -0.126,-2.53 -0.068,-0.094 -0.21,-0.195 -0.313,-0.225 -0.137,-0.04 -0.188,-0.09 -0.188,-0.188 0,-0.133 0.006,-0.134 1.518,-0.173 1.61,-0.042 1.965,-0.01 2.42,0.212 0.395,0.194 0.726,0.785 0.726,1.3 0,0.59 -0.43,1.255 -1,1.542 l -0.3,0.15 0.66,1.003 c 0.776,1.18 1.02,1.496 1.25,1.617 0.213,0.112 0.234,0.357 0.034,0.41 -0.24,0.067 -1.027,0.037 -1.21,-0.045 z m -1.497,-3.384 c 0.802,-0.227 1.072,-1.358 0.465,-1.947 -0.285,-0.276 -0.588,-0.377 -0.974,-0.323 l -0.296,0.04 v 2.3 h 0.284 c 0.156,0 0.39,-0.03 0.522,-0.068 z m 13.782,3.383 c -0.328,-0.12 -0.637,-0.33 -0.8,-0.55 -0.298,-0.394 -0.33,-0.602 -0.333,-2.212 -0.005,-1.682 -0.036,-1.867 -0.34,-2.01 -0.123,-0.058 -0.194,-0.136 -0.195,-0.212 0,-0.117 0.038,-0.122 1.016,-0.122 1.016,0 1.018,0 1.018,0.137 0,0.09 -0.036,0.136 -0.11,0.136 -0.06,0 -0.174,0.07 -0.254,0.156 l -0.145,0.157 v 1.65 c 0,1.55 0.007,1.662 0.124,1.89 0.182,0.352 0.546,0.533 1.014,0.505 0.503,-0.03 0.775,-0.212 0.976,-0.65 0.155,-0.336 0.156,-0.353 0.157,-1.83 0.002,-1.322 -0.01,-1.508 -0.103,-1.653 -0.058,-0.09 -0.172,-0.18 -0.254,-0.2 -0.093,-0.025 -0.15,-0.082 -0.15,-0.154 0,-0.106 0.056,-0.114 0.808,-0.114 0.752,0 0.81,0.008 0.81,0.115 0,0.073 -0.057,0.13 -0.15,0.154 -0.274,0.07 -0.296,0.2 -0.33,1.953 l -0.03,1.643 -0.18,0.358 c -0.212,0.42 -0.556,0.712 -1,0.846 -0.373,0.113 -1.248,0.118 -1.548,0.01 z m 23.33,0 c -0.333,-0.12 -0.64,-0.332 -0.808,-0.557 -0.282,-0.375 -0.322,-0.653 -0.326,-2.238 -0.004,-1.647 -0.036,-1.835 -0.34,-1.978 -0.122,-0.058 -0.193,-0.136 -0.194,-0.212 0,-0.117 0.038,-0.122 1.016,-0.122 1.005,0 1.017,0.002 1.017,0.132 0,0.09 -0.042,0.14 -0.13,0.152 -0.07,0.01 -0.184,0.097 -0.253,0.19 -0.118,0.16 -0.127,0.26 -0.145,1.592 -0.024,1.634 0.02,1.98 0.294,2.262 0.493,0.512 1.52,0.37 1.81,-0.252 0.183,-0.392 0.23,-0.883 0.208,-2.168 -0.024,-1.36 -0.064,-1.53 -0.38,-1.61 -0.093,-0.024 -0.15,-0.08 -0.15,-0.153 0,-0.106 0.056,-0.114 0.808,-0.114 0.75,0 0.808,0.008 0.808,0.114 0,0.07 -0.07,0.144 -0.175,0.188 -0.096,0.04 -0.196,0.12 -0.22,0.174 -0.026,0.056 -0.062,0.84 -0.08,1.745 l -0.033,1.644 -0.18,0.357 c -0.213,0.422 -0.557,0.713 -1,0.847 -0.374,0.112 -1.25,0.117 -1.55,0.01 z m 18.933,-0.003 c -0.24,-0.106 -0.523,-0.465 -0.964,-1.22 -0.567,-0.972 -0.63,-1.06 -0.78,-1.06 -0.132,0 -0.134,0.01 -0.134,0.76 0,0.907 0.075,1.163 0.356,1.22 0.142,0.03 0.182,0.07 0.182,0.182 v 0.144 h -2.035 v -0.144 c 0,-0.113 0.04,-0.153 0.183,-0.182 0.34,-0.07 0.365,-0.233 0.344,-2.346 l -0.018,-1.872 -0.146,-0.156 c -0.08,-0.086 -0.194,-0.157 -0.254,-0.157 -0.068,0 -0.11,-0.045 -0.11,-0.117 0,-0.1 0.06,-0.122 0.44,-0.158 0.24,-0.023 0.907,-0.03 1.48,-0.018 0.93,0.02 1.068,0.037 1.29,0.156 0.397,0.212 0.62,0.625 0.62,1.15 0,0.496 -0.282,0.933 -0.792,1.23 -0.163,0.093 -0.268,0.188 -0.234,0.21 0.034,0.02 0.298,0.4 0.587,0.84 0.568,0.868 0.883,1.26 1.014,1.26 0.115,0 0.105,0.28 -0.012,0.327 -0.17,0.066 -0.828,0.034 -1.017,-0.05 z m -1.106,-2.856 c 0.237,-0.124 0.47,-0.425 0.515,-0.662 0.056,-0.304 -0.076,-0.706 -0.304,-0.924 -0.21,-0.203 -0.415,-0.26 -0.768,-0.22 l -0.216,0.027 v 1.867 h 0.302 c 0.166,0 0.378,-0.04 0.47,-0.09 z m 26.626,2.846 c -0.18,-0.05 -0.337,-0.1 -0.35,-0.114 -0.013,-0.013 -0.057,-0.285 -0.097,-0.605 l -0.075,-0.58 h 0.17 c 0.092,0 0.168,0.023 0.168,0.05 0,0.158 0.393,0.624 0.62,0.735 0.615,0.303 1.354,0.018 1.354,-0.52 0,-0.355 -0.17,-0.566 -0.746,-0.933 -0.808,-0.514 -1.12,-0.786 -1.28,-1.115 -0.162,-0.328 -0.19,-0.84 -0.07,-1.213 0.08,-0.246 0.456,-0.614 0.773,-0.756 0.318,-0.142 1.315,-0.138 1.728,0.008 l 0.315,0.112 v 1.083 h -0.173 c -0.134,0 -0.18,-0.033 -0.21,-0.15 -0.063,-0.254 -0.384,-0.57 -0.652,-0.644 -0.718,-0.196 -1.293,0.552 -0.842,1.095 0.086,0.105 0.476,0.41 0.867,0.68 0.757,0.52 1.037,0.803 1.13,1.145 0.207,0.752 -0.136,1.417 -0.875,1.697 -0.396,0.15 -1.253,0.164 -1.754,0.027 z m -78.362,-0.13 c 0,-0.106 0.034,-0.138 0.145,-0.138 0.085,0 0.195,-0.066 0.268,-0.16 0.12,-0.154 0.124,-0.23 0.124,-2.068 0,-1.335 -0.02,-1.948 -0.07,-2.04 -0.088,-0.17 -0.23,-0.28 -0.363,-0.283 -0.073,0 -0.106,-0.05 -0.106,-0.153 v -0.152 h 3.588 v 1.283 l -0.157,-0.02 c -0.118,-0.014 -0.174,-0.07 -0.224,-0.225 -0.118,-0.363 -0.315,-0.455 -1.027,-0.482 l -0.626,-0.022 v 1.729 l 0.48,-0.03 c 0.525,-0.03 0.79,-0.16 0.825,-0.402 0.014,-0.096 0.06,-0.13 0.18,-0.13 h 0.16 v 1.578 h -0.16 c -0.133,0 -0.165,-0.027 -0.165,-0.142 0,-0.27 -0.2,-0.37 -0.784,-0.394 l -0.53,-0.02 v 0.85 c 0,1.03 0.01,1.043 0.692,1.043 0.673,0 1.024,-0.174 1.2,-0.593 0.09,-0.212 0.296,-0.272 0.36,-0.105 0.04,0.11 -0.128,0.823 -0.254,1.07 l -0.09,0.177 -1.732,-0.015 -1.732,-0.014 v -0.14 z m 4.606,0.02 c 0,-0.11 0.04,-0.15 0.176,-0.18 0.316,-0.063 0.33,-0.153 0.35,-2.103 0.022,-2.03 -0.003,-2.214 -0.33,-2.368 -0.137,-0.065 -0.194,-0.134 -0.195,-0.234 v -0.142 l 1.36,0.025 c 1.472,0.026 1.592,0.05 1.99,0.39 0.44,0.374 0.553,1.12 0.256,1.672 -0.258,0.483 -0.706,0.74 -1.42,0.813 l -0.373,0.04 -0.093,-0.236 -0.092,-0.236 0.22,-0.033 c 0.28,-0.04 0.586,-0.22 0.748,-0.44 0.092,-0.127 0.125,-0.258 0.122,-0.487 -0.008,-0.59 -0.335,-0.953 -0.907,-1 l -0.322,-0.028 0.02,2.026 c 0.02,2.21 0.03,2.273 0.36,2.343 0.125,0.025 0.166,0.07 0.166,0.178 v 0.145 h -2.035 v -0.144 z m 9.93,-0.02 c 0,-0.095 0.035,-0.138 0.113,-0.138 0.062,0 0.176,-0.053 0.254,-0.116 l 0.14,-0.116 0.02,-1.882 c 0.02,-2.106 -0.003,-2.265 -0.347,-2.397 -0.107,-0.04 -0.18,-0.112 -0.18,-0.176 0,-0.098 0.083,-0.11 0.912,-0.123 1.746,-0.028 2.11,-0.008 2.395,0.13 0.368,0.182 0.54,0.444 0.57,0.87 0.014,0.19 0.008,0.414 -0.012,0.496 -0.06,0.24 -0.338,0.53 -0.646,0.674 l -0.286,0.134 0.242,0.074 c 0.576,0.175 0.944,0.787 0.868,1.445 -0.065,0.555 -0.3,0.867 -0.844,1.122 -0.286,0.134 -0.362,0.14 -1.75,0.14 h -1.45 v -0.136 z m 2.638,-0.458 c 0.305,-0.207 0.426,-0.49 0.392,-0.912 -0.05,-0.637 -0.49,-1.015 -1.178,-1.015 h -0.365 l 0.02,0.917 c 0.017,0.878 0.024,0.92 0.16,1.032 0.206,0.17 0.705,0.158 0.97,-0.022 z m -0.247,-2.523 c 0.368,-0.144 0.56,-0.435 0.523,-0.79 -0.05,-0.475 -0.43,-0.74 -1.057,-0.74 h -0.36 v 1.64 l 0.313,-0.004 c 0.172,0 0.434,-0.05 0.58,-0.107 z m 2.455,2.982 c 0,-0.098 0.04,-0.137 0.16,-0.152 0.088,-0.01 0.212,-0.094 0.283,-0.19 0.12,-0.166 0.125,-0.237 0.125,-2.034 0,-1.492 -0.016,-1.892 -0.084,-2.014 -0.107,-0.19 -0.244,-0.3 -0.38,-0.3 -0.068,-0.003 -0.105,-0.05 -0.105,-0.14 0,-0.137 0,-0.137 1.077,-0.137 1.077,0 1.077,0 1.077,0.137 0,0.095 -0.037,0.137 -0.118,0.137 -0.064,0 -0.192,0.064 -0.284,0.145 l -0.168,0.146 -0.017,1.916 -0.017,1.915 0.153,0.102 c 0.12,0.08 0.25,0.096 0.62,0.075 0.57,-0.034 0.836,-0.177 0.995,-0.534 0.105,-0.237 0.217,-0.295 0.374,-0.193 0.058,0.038 0.05,0.15 -0.046,0.526 -0.066,0.263 -0.162,0.542 -0.213,0.62 l -0.09,0.144 -1.673,-0.017 -1.672,-0.018 v -0.133 z m 4.187,0.02 c 0,-0.113 0.04,-0.153 0.182,-0.182 0.33,-0.067 0.357,-0.233 0.357,-2.268 0,-1.69 -0.007,-1.82 -0.117,-2.004 -0.065,-0.107 -0.186,-0.213 -0.27,-0.234 -0.102,-0.026 -0.15,-0.08 -0.15,-0.17 0,-0.126 0.017,-0.13 1.016,-0.13 0.999,0 1.016,0.004 1.016,0.13 0,0.09 -0.048,0.144 -0.15,0.17 -0.08,0.02 -0.195,0.11 -0.253,0.2 -0.095,0.147 -0.105,0.35 -0.105,2.018 0,2.06 0.024,2.226 0.337,2.29 0.13,0.027 0.17,0.07 0.17,0.18 v 0.143 h -2.034 v -0.144 z m 14.297,-0.012 c 0,-0.1 0.044,-0.143 0.18,-0.17 0.33,-0.067 0.357,-0.232 0.357,-2.274 0,-1.79 -0.002,-1.817 -0.136,-2.02 -0.075,-0.114 -0.196,-0.216 -0.27,-0.226 -0.094,-0.014 -0.13,-0.06 -0.13,-0.167 v -0.148 h 3.528 v 0.638 c 0,0.63 0,0.637 -0.143,0.637 -0.115,0 -0.15,-0.04 -0.18,-0.21 -0.068,-0.36 -0.312,-0.482 -1.028,-0.51 l -0.605,-0.022 -0.04,0.29 c -0.02,0.157 -0.038,0.546 -0.038,0.864 v 0.576 l 0.51,-0.032 c 0.56,-0.035 0.78,-0.135 0.842,-0.38 0.027,-0.108 0.078,-0.15 0.18,-0.15 h 0.143 v 1.578 h -0.15 c -0.102,0 -0.15,-0.035 -0.152,-0.107 -0.005,-0.3 -0.29,-0.44 -0.897,-0.44 h -0.487 l 0.02,0.855 c 0.026,1.035 0.02,1.027 0.738,1.027 0.635,0 0.965,-0.155 1.137,-0.532 0.087,-0.19 0.153,-0.258 0.25,-0.258 0.074,0 0.152,0.03 0.174,0.066 0.055,0.09 -0.21,1.076 -0.318,1.186 -0.07,0.072 -0.375,0.085 -1.785,0.074 l -1.698,-0.013 v -0.133 z m 6.58,0.014 c 0,-0.1 0.055,-0.166 0.19,-0.227 0.104,-0.048 0.245,-0.164 0.313,-0.26 0.12,-0.165 0.124,-0.24 0.124,-2.457 0,-2.573 -0.005,-2.604 -0.418,-2.742 -0.164,-0.055 -0.21,-0.103 -0.21,-0.218 v -0.147 h 4.186 v 1.518 h -0.18 c -0.145,0 -0.18,-0.025 -0.18,-0.136 0,-0.223 -0.225,-0.53 -0.464,-0.635 -0.14,-0.063 -0.47,-0.11 -0.896,-0.127 l -0.673,-0.028 v 2.08 l 0.494,-0.004 c 0.658,-0.004 0.883,-0.087 1.022,-0.375 0.088,-0.186 0.14,-0.228 0.283,-0.228 h 0.174 v 1.831 l -0.192,-0.02 c -0.132,-0.012 -0.202,-0.056 -0.224,-0.14 -0.094,-0.357 -0.46,-0.516 -1.188,-0.516 h -0.382 l 0.024,1.078 c 0.028,1.23 0.08,1.41 0.437,1.54 0.16,0.06 0.21,0.113 0.21,0.218 v 0.14 h -2.449 v -0.142 z m 9.57,-0.01 c 0,-0.112 0.032,-0.152 0.12,-0.152 0.182,0 0.39,-0.38 0.846,-1.532 0.61,-1.545 1.187,-3.116 1.187,-3.227 0,-0.076 0.062,-0.098 0.284,-0.097 l 0.284,0.002 0.808,2.098 c 0.876,2.28 1.038,2.633 1.242,2.724 0.083,0.037 0.135,0.113 0.135,0.198 0,0.137 0,0.137 -1.017,0.137 h -1.018 v -0.144 c 0,-0.11 0.04,-0.152 0.18,-0.18 0.256,-0.052 0.27,-0.228 0.072,-0.828 l -0.172,-0.516 h -1.414 l -0.142,0.425 c -0.18,0.536 -0.17,0.903 0.026,0.93 0.098,0.015 0.135,0.06 0.135,0.168 v 0.147 h -1.555 v -0.152 z m 2.75,-2.126 c 0,-0.093 -0.438,-1.305 -0.472,-1.305 -0.02,0 -0.082,0.117 -0.135,0.258 l -0.25,0.67 -0.153,0.41 h 0.506 c 0.278,0 0.505,-0.015 0.505,-0.032 z m 2.574,2.133 c 0,-0.108 0.04,-0.152 0.164,-0.177 0.324,-0.068 0.338,-0.153 0.363,-2.138 0.027,-2.048 0.002,-2.22 -0.346,-2.354 -0.108,-0.04 -0.18,-0.112 -0.18,-0.176 0,-0.097 0.067,-0.108 0.672,-0.108 h 0.673 l 0.388,0.5 c 0.214,0.274 0.766,0.95 1.227,1.503 0.46,0.55 0.9,1.085 0.974,1.184 l 0.136,0.18 -0.02,-1.37 c -0.02,-1.495 -0.054,-1.65 -0.374,-1.73 -0.093,-0.024 -0.15,-0.082 -0.15,-0.153 0,-0.106 0.056,-0.114 0.808,-0.114 0.758,0 0.808,0.007 0.808,0.117 0,0.073 -0.048,0.124 -0.13,0.136 -0.07,0.01 -0.184,0.096 -0.253,0.19 -0.12,0.166 -0.126,0.246 -0.144,2.413 l -0.017,2.242 h -0.26 c -0.237,0 -0.28,-0.025 -0.46,-0.258 -0.158,-0.206 -2.692,-3.392 -2.79,-3.506 -0.013,-0.015 -0.013,0.654 0.002,1.49 0.03,1.69 0.066,1.894 0.35,1.952 0.133,0.026 0.174,0.068 0.174,0.18 v 0.143 h -1.616 v -0.144 z m 10.468,-0.007 c 0,-0.09 0.034,-0.15 0.084,-0.15 0.118,0 0.34,-0.286 0.498,-0.642 0.22,-0.493 1.244,-3.174 1.42,-3.717 l 0.163,-0.504 0.267,0.017 0.268,0.018 0.793,2.064 c 0.437,1.135 0.842,2.16 0.9,2.276 0.134,0.267 0.33,0.486 0.432,0.486 0.045,0 0.08,0.066 0.08,0.15 v 0.153 h -2.034 v -0.152 c 0,-0.105 0.033,-0.15 0.108,-0.15 0.29,0 0.317,-0.258 0.097,-0.927 l -0.154,-0.47 h -1.403 l -0.128,0.41 c -0.24,0.773 -0.23,0.986 0.053,0.986 0.08,0 0.112,0.043 0.112,0.15 v 0.153 h -1.557 v -0.152 z m 2.538,-2.716 c -0.113,-0.343 -0.222,-0.663 -0.24,-0.714 -0.023,-0.054 -0.142,0.178 -0.298,0.577 -0.144,0.367 -0.263,0.688 -0.264,0.713 0,0.025 0.225,0.046 0.503,0.046 h 0.505 l -0.205,-0.623 z m 2.726,2.716 c 0,-0.118 0.03,-0.15 0.14,-0.15 0.077,0 0.192,-0.06 0.254,-0.13 0.106,-0.118 0.115,-0.258 0.132,-2.018 0.01,-1.04 0.002,-1.95 -0.016,-2.025 -0.043,-0.173 -0.262,-0.38 -0.402,-0.38 -0.072,0 -0.108,-0.047 -0.108,-0.138 0,-0.136 0.002,-0.137 1.017,-0.137 0.978,0 1.016,0.005 1.016,0.122 0,0.076 -0.066,0.15 -0.174,0.2 -0.095,0.042 -0.2,0.152 -0.234,0.242 -0.088,0.232 -0.137,2.126 -0.083,3.15 0.037,0.713 0.064,0.882 0.157,0.986 0.06,0.07 0.16,0.126 0.222,0.126 0.077,0 0.11,0.044 0.11,0.15 v 0.153 h -2.034 v -0.152 z m 6.7,-0.01 c 0,-0.11 0.032,-0.14 0.144,-0.14 0.086,0 0.197,-0.067 0.27,-0.16 0.12,-0.156 0.124,-0.23 0.124,-2.07 0,-1.334 -0.02,-1.947 -0.07,-2.04 -0.09,-0.17 -0.23,-0.28 -0.364,-0.282 -0.07,0 -0.105,-0.05 -0.105,-0.153 v -0.152 h 3.589 v 1.283 l -0.157,-0.02 c -0.118,-0.014 -0.173,-0.07 -0.224,-0.225 -0.118,-0.363 -0.315,-0.455 -1.027,-0.482 l -0.625,-0.022 v 1.713 l 0.374,-0.002 c 0.52,-0.005 0.773,-0.104 0.883,-0.345 0.065,-0.143 0.13,-0.196 0.24,-0.197 h 0.15 v 1.578 h -0.167 c -0.132,0 -0.163,-0.028 -0.163,-0.143 0,-0.27 -0.2,-0.37 -0.784,-0.394 l -0.532,-0.02 v 0.85 c 0,1.03 0.01,1.043 0.693,1.043 0.673,0 1.025,-0.174 1.2,-0.593 0.09,-0.212 0.296,-0.272 0.36,-0.105 0.04,0.11 -0.127,0.823 -0.254,1.07 l -0.09,0.177 -1.733,-0.014 -1.732,-0.013 v -0.14 z m -80.15,-5.54 -0.147,-0.113 0.355,-0.552 c 0.195,-0.303 0.393,-0.552 0.44,-0.552 0.202,-0.003 0.846,0.138 0.83,0.18 -0.032,0.086 -1.213,1.154 -1.274,1.153 -0.032,-0.002 -0.124,-0.054 -0.205,-0.116 z m -7.6,-4.193 h 91.102 v 0.546 h -91.102 z m 34.672,-1.243 c -0.48,-0.173 -0.748,-0.625 -0.66,-1.11 0.058,-0.327 0.24,-0.556 0.563,-0.708 l 0.284,-0.134 -0.172,-0.1 c -0.098,-0.057 -0.172,-0.152 -0.172,-0.22 0,-0.11 0.438,-0.554 0.547,-0.554 0.026,0 -0.012,-0.1 -0.083,-0.224 -0.307,-0.527 -0.062,-1.29 0.51,-1.587 0.31,-0.16 0.414,-0.168 1.498,-0.097 0.624,0.04 0.647,0.047 0.614,0.17 -0.018,0.072 -0.034,0.15 -0.035,0.176 0,0.024 -0.105,0.045 -0.233,0.045 h -0.234 l 0.032,0.353 c 0.07,0.77 -0.47,1.297 -1.342,1.31 -0.453,0.01 -0.672,0.106 -0.495,0.22 0.05,0.033 0.34,0.142 0.65,0.244 0.99,0.325 1.173,0.488 1.13,1.01 -0.044,0.544 -0.474,1.017 -1.096,1.207 -0.357,0.108 -1,0.107 -1.304,-0.003 z m 1.33,-0.374 c 0.487,-0.246 0.697,-0.714 0.432,-0.958 -0.18,-0.164 -0.956,-0.416 -1.157,-0.376 -0.41,0.083 -0.793,0.59 -0.723,0.956 0.097,0.503 0.825,0.692 1.45,0.377 z m 0.162,-2.747 c 0.364,-0.226 0.505,-0.866 0.26,-1.183 -0.336,-0.433 -0.975,0.05 -0.98,0.74 -0.003,0.216 0.028,0.29 0.165,0.41 0.202,0.177 0.312,0.183 0.555,0.033 z m 2.268,1.408 c -0.263,-0.054 -0.404,-0.232 -0.434,-0.548 -0.076,-0.808 0.594,-1.992 1.343,-2.374 0.39,-0.198 1.16,-0.218 1.67,-0.043 0.047,0.014 0.013,0.222 -0.106,0.65 -0.23,0.833 -0.363,1.67 -0.287,1.813 0.05,0.095 0.086,0.102 0.244,0.046 0.147,-0.053 0.197,-0.05 0.238,0.017 0.086,0.138 0.034,0.19 -0.308,0.31 -0.46,0.16 -0.67,0.128 -0.74,-0.11 l -0.053,-0.187 -0.245,0.14 c -0.415,0.233 -0.98,0.355 -1.322,0.284 z m 1.034,-0.545 c 0.174,-0.085 0.355,-0.214 0.403,-0.288 0.08,-0.124 0.324,-1.035 0.42,-1.565 0.038,-0.217 0.033,-0.225 -0.184,-0.286 -0.4,-0.11 -0.805,0.186 -1.127,0.83 -0.338,0.678 -0.423,1.28 -0.203,1.437 0.15,0.106 0.24,0.09 0.692,-0.128 z m 28.322,0.527 c -0.268,-0.065 -0.363,-0.16 -0.436,-0.436 -0.112,-0.418 0.146,-1.212 0.584,-1.8 0.524,-0.7 1.107,-0.938 1.967,-0.8 0.226,0.037 0.43,0.086 0.45,0.11 0.022,0.023 -0.053,0.41 -0.167,0.86 -0.115,0.452 -0.213,0.998 -0.22,1.215 l -0.01,0.395 0.253,-0.012 c 0.228,-0.01 0.255,0.003 0.255,0.127 0,0.116 -0.056,0.156 -0.345,0.245 -0.475,0.146 -0.696,0.115 -0.72,-0.102 -0.01,-0.092 -0.03,-0.167 -0.043,-0.167 -0.013,0 -0.17,0.066 -0.348,0.146 -0.286,0.128 -0.87,0.29 -0.984,0.274 -0.023,-0.004 -0.13,-0.028 -0.236,-0.053 z m 1.002,-0.52 c 0.148,-0.075 0.312,-0.187 0.366,-0.25 0.132,-0.153 0.37,-0.946 0.493,-1.643 0.033,-0.186 0.023,-0.2 -0.204,-0.26 -0.193,-0.054 -0.276,-0.047 -0.446,0.035 -0.38,0.182 -0.757,0.802 -0.952,1.566 -0.187,0.732 0.046,0.905 0.744,0.55 z m -64.873,0.38 c -0.018,-0.074 0.09,-0.64 0.237,-1.254 0.292,-1.212 0.29,-1.31 -0.03,-1.218 -0.16,0.046 -0.177,0.038 -0.177,-0.086 0,-0.117 0.056,-0.156 0.344,-0.24 0.19,-0.057 0.438,-0.11 0.553,-0.117 0.197,-0.013 0.21,-0.002 0.23,0.19 0.01,0.112 -0.094,0.667 -0.23,1.233 -0.136,0.566 -0.233,1.072 -0.213,1.123 0.028,0.074 0.09,0.085 0.31,0.052 0.26,-0.04 0.27,-0.035 0.252,0.097 -0.016,0.11 -0.09,0.16 -0.35,0.243 -0.18,0.057 -0.456,0.106 -0.612,0.108 -0.245,0.004 -0.287,-0.013 -0.315,-0.132 z m 2.3,0.026 -0.137,-0.112 0.464,-2.065 c 0.255,-1.137 0.454,-2.145 0.444,-2.24 -0.02,-0.18 -0.042,-0.19 -0.274,-0.117 -0.115,0.035 -0.135,0.02 -0.135,-0.112 0,-0.176 0.21,-0.262 0.793,-0.322 0.333,-0.034 0.344,-0.03 0.344,0.112 0,0.08 -0.095,0.58 -0.21,1.11 -0.115,0.53 -0.21,0.998 -0.21,1.04 0,0.06 0.067,0.05 0.26,-0.036 0.667,-0.3 1.248,-0.284 1.456,0.04 0.195,0.302 0.094,1.084 -0.223,1.725 -0.165,0.334 -0.656,0.853 -0.922,0.976 -0.35,0.163 -1.454,0.164 -1.65,0.003 z m 1.513,-0.385 c 0.3,-0.216 0.635,-0.944 0.73,-1.586 0.093,-0.644 -0.326,-0.773 -0.996,-0.305 -0.142,0.1 -0.255,0.246 -0.314,0.406 -0.108,0.297 -0.332,1.266 -0.332,1.44 0,0.255 0.58,0.284 0.912,0.045 z m 2.285,0.31 c -0.16,-0.17 -0.174,-0.22 -0.17,-0.622 0.007,-1.024 0.582,-1.94 1.372,-2.194 0.395,-0.126 0.742,-0.083 0.975,0.12 0.134,0.117 0.16,0.19 0.16,0.44 0,0.624 -0.56,1.098 -1.37,1.155 -0.233,0.016 -0.444,0.06 -0.468,0.097 -0.068,0.104 -0.055,0.455 0.022,0.603 0.15,0.288 0.364,0.294 0.876,0.028 0.32,-0.167 0.386,-0.183 0.433,-0.107 0.107,0.17 0.058,0.223 -0.407,0.445 -0.388,0.184 -0.532,0.222 -0.856,0.222 -0.357,0 -0.405,-0.016 -0.566,-0.186 z m 1.072,-1.457 c 0.51,-0.142 0.845,-0.695 0.584,-0.96 -0.165,-0.166 -0.317,-0.16 -0.528,0.02 -0.168,0.144 -0.442,0.6 -0.522,0.87 -0.034,0.114 -0.018,0.136 0.097,0.136 0.077,0 0.243,-0.03 0.37,-0.065 z m 2.013,1.624 c 0,-0.01 0.108,-0.48 0.24,-1.046 0.13,-0.565 0.238,-1.147 0.238,-1.293 v -0.266 l -0.238,0.038 c -0.213,0.034 -0.24,0.025 -0.24,-0.083 0,-0.133 0.194,-0.235 0.68,-0.358 0.33,-0.084 0.457,-0.026 0.457,0.21 v 0.143 l 0.212,-0.146 c 0.374,-0.257 0.602,-0.304 0.873,-0.18 0.13,0.06 0.227,0.137 0.217,0.173 -0.162,0.58 -0.254,0.764 -0.386,0.764 -0.117,0 -0.138,-0.03 -0.138,-0.204 0,-0.442 -0.38,-0.445 -0.654,-0.006 -0.17,0.274 -0.348,0.897 -0.488,1.72 -0.042,0.245 -0.105,0.454 -0.14,0.465 -0.106,0.03 -0.633,0.09 -0.633,0.07 z m 3,-0.058 c -0.065,-0.08 -0.03,-0.3 0.313,-1.88 l 0.14,-0.652 h -0.2 c -0.11,0 -0.202,-0.015 -0.202,-0.034 0,-0.095 0.134,-0.27 0.207,-0.27 0.146,0 0.426,-0.287 0.543,-0.557 0.132,-0.302 0.184,-0.35 0.38,-0.352 0.128,0 0.137,0.02 0.102,0.198 -0.02,0.108 -0.055,0.3 -0.075,0.425 l -0.036,0.227 h 0.277 c 0.283,0 0.324,0.047 0.24,0.268 -0.026,0.07 -0.116,0.096 -0.322,0.096 -0.332,0 -0.278,-0.12 -0.543,1.208 -0.196,0.977 -0.183,1.067 0.14,0.973 0.27,-0.08 0.293,-0.072 0.272,0.08 -0.015,0.104 -0.092,0.162 -0.32,0.24 -0.365,0.123 -0.828,0.14 -0.916,0.03 z m 2.414,-0.08 c -0.44,-0.478 -0.122,-1.84 0.575,-2.477 0.284,-0.26 0.728,-0.46 1.02,-0.46 0.183,0 0.588,0.19 0.65,0.306 0.095,0.182 0.065,0.62 -0.058,0.824 -0.252,0.42 -0.796,0.69 -1.388,0.69 h -0.352 v 0.32 c 0,0.622 0.254,0.73 0.924,0.396 0.213,-0.106 0.4,-0.182 0.414,-0.167 0.014,0.014 0.035,0.08 0.047,0.148 0.016,0.098 -0.067,0.166 -0.422,0.35 -0.383,0.197 -0.495,0.227 -0.854,0.227 -0.368,0 -0.43,-0.017 -0.557,-0.158 z m 1.052,-1.49 c 0.316,-0.108 0.537,-0.292 0.633,-0.525 0.08,-0.194 0.08,-0.224 -0.027,-0.37 -0.165,-0.224 -0.326,-0.225 -0.574,-0.004 -0.19,0.17 -0.517,0.74 -0.517,0.906 0,0.085 0.23,0.082 0.485,-0.006 z m 22.466,1.608 c -0.085,-0.085 -0.03,-0.444 0.257,-1.682 0.39,-1.684 0.6,-2.676 0.6,-2.837 0,-0.115 -0.025,-0.126 -0.21,-0.096 -0.19,0.03 -0.21,0.02 -0.21,-0.112 0,-0.152 0.15,-0.22 0.745,-0.335 0.307,-0.06 0.393,-0.02 0.393,0.18 0,0.09 -0.202,1.05 -0.448,2.134 -0.246,1.084 -0.45,2.06 -0.45,2.174 v 0.206 l 0.274,-0.038 c 0.256,-0.035 0.27,-0.03 0.253,0.096 -0.015,0.104 -0.094,0.158 -0.348,0.24 -0.336,0.106 -0.786,0.143 -0.857,0.07 z m 2.255,-0.033 c -0.074,-0.12 -0.032,-0.383 0.223,-1.398 0.132,-0.528 0.23,-1.008 0.22,-1.064 -0.025,-0.11 -0.04,-0.112 -0.3,-0.05 -0.14,0.033 -0.165,0.02 -0.165,-0.086 0,-0.145 0.256,-0.273 0.72,-0.363 0.334,-0.065 0.477,-0.032 0.477,0.108 0,0.052 -0.122,0.61 -0.27,1.24 -0.148,0.63 -0.254,1.176 -0.232,1.21 0.024,0.04 0.142,0.052 0.305,0.03 0.248,-0.035 0.264,-0.03 0.246,0.096 -0.015,0.104 -0.094,0.158 -0.348,0.24 -0.39,0.123 -0.812,0.14 -0.876,0.037 z m 2.21,-0.026 c -0.022,-0.056 -0.006,-0.254 0.034,-0.44 0.134,-0.612 0.426,-2.013 0.426,-2.04 0,-0.017 -0.083,-0.03 -0.184,-0.03 -0.26,0 -0.212,-0.17 0.093,-0.33 0.182,-0.095 0.287,-0.216 0.437,-0.504 0.17,-0.33 0.22,-0.38 0.366,-0.38 h 0.17 l -0.08,0.38 c -0.045,0.208 -0.082,0.4 -0.083,0.425 -0.001,0.025 0.132,0.045 0.296,0.045 0.312,0 0.32,0.007 0.26,0.228 -0.03,0.12 -0.074,0.136 -0.345,0.136 h -0.31 l -0.2,1.025 c -0.11,0.562 -0.185,1.066 -0.166,1.12 0.03,0.076 0.073,0.083 0.233,0.037 0.274,-0.08 0.287,-0.076 0.287,0.086 0,0.123 -0.05,0.158 -0.348,0.243 -0.463,0.132 -0.84,0.13 -0.89,-0.002 z m 2.462,-0.037 c -0.15,-0.13 -0.175,-0.2 -0.196,-0.54 -0.05,-0.765 0.296,-1.628 0.808,-2.024 0.565,-0.438 1.182,-0.496 1.528,-0.144 0.16,0.162 0.175,0.208 0.15,0.482 -0.057,0.602 -0.625,1.038 -1.402,1.08 -0.486,0.024 -0.537,0.083 -0.442,0.51 0.104,0.466 0.292,0.514 0.89,0.226 0.398,-0.19 0.49,-0.19 0.49,0 0,0.195 -0.72,0.507 -1.232,0.535 -0.382,0.022 -0.44,0.01 -0.595,-0.126 z m 1.287,-1.622 c 0.373,-0.193 0.533,-0.623 0.32,-0.86 -0.267,-0.3 -0.762,0.092 -1.007,0.798 l -0.09,0.26 0.27,-0.037 c 0.147,-0.02 0.376,-0.093 0.506,-0.16 z m 14.297,1.737 c 0,-0.01 0.107,-0.48 0.238,-1.044 0.132,-0.565 0.24,-1.147 0.24,-1.293 v -0.266 l -0.24,0.038 c -0.21,0.034 -0.24,0.025 -0.24,-0.08 0,-0.15 0.107,-0.21 0.59,-0.336 0.422,-0.11 0.548,-0.068 0.548,0.186 v 0.142 l 0.212,-0.146 c 0.373,-0.257 0.602,-0.304 0.87,-0.182 0.13,0.06 0.234,0.124 0.234,0.144 0,0.02 -0.06,0.207 -0.134,0.415 -0.11,0.315 -0.158,0.38 -0.27,0.38 -0.113,0 -0.134,-0.032 -0.134,-0.204 0,-0.415 -0.352,-0.446 -0.614,-0.054 -0.2,0.298 -0.302,0.62 -0.466,1.473 -0.073,0.384 -0.15,0.715 -0.17,0.736 -0.036,0.038 -0.665,0.125 -0.665,0.092 z m 6.9,-0.072 c -0.05,-0.13 0.006,-0.504 0.237,-1.575 l 0.197,-0.91 -0.168,-0.02 c -0.2,-0.022 -0.235,-0.224 -0.048,-0.284 0.21,-0.067 0.453,-0.317 0.57,-0.587 0.132,-0.302 0.184,-0.35 0.38,-0.352 0.128,0 0.138,0.02 0.102,0.198 -0.02,0.108 -0.055,0.3 -0.074,0.425 l -0.036,0.227 h 0.276 c 0.283,0 0.325,0.047 0.24,0.268 -0.025,0.07 -0.116,0.096 -0.322,0.096 -0.332,0 -0.278,-0.12 -0.543,1.208 -0.194,0.977 -0.18,1.067 0.143,0.973 0.27,-0.08 0.292,-0.072 0.27,0.08 -0.014,0.104 -0.09,0.162 -0.317,0.24 -0.4,0.134 -0.86,0.142 -0.907,0.015 z m 2.412,-0.062 c -0.453,-0.46 -0.14,-1.836 0.565,-2.48 0.284,-0.26 0.728,-0.46 1.02,-0.46 0.183,0 0.588,0.192 0.65,0.308 0.095,0.182 0.065,0.62 -0.058,0.824 -0.254,0.422 -0.796,0.69 -1.396,0.69 h -0.36 l 0.028,0.372 c 0.042,0.592 0.256,0.672 0.912,0.344 0.213,-0.106 0.4,-0.182 0.414,-0.167 0.015,0.014 0.036,0.08 0.047,0.148 0.016,0.098 -0.067,0.166 -0.42,0.35 -0.382,0.195 -0.5,0.227 -0.846,0.227 -0.354,0 -0.422,-0.02 -0.558,-0.157 z m 1.254,-1.582 c 0.42,-0.21 0.606,-0.7 0.345,-0.9 -0.172,-0.134 -0.298,-0.112 -0.528,0.093 -0.192,0.17 -0.513,0.74 -0.513,0.91 0,0.1 0.413,0.04 0.696,-0.104 z m 1.816,1.687 c 0,-0.026 0.11,-0.518 0.243,-1.094 0.133,-0.578 0.234,-1.136 0.224,-1.242 -0.018,-0.18 -0.033,-0.192 -0.238,-0.18 -0.17,0.01 -0.224,-0.013 -0.248,-0.105 -0.024,-0.095 0.028,-0.138 0.278,-0.232 0.17,-0.062 0.41,-0.133 0.532,-0.155 0.232,-0.043 0.228,-0.046 0.374,0.31 0.002,0.007 0.162,-0.068 0.355,-0.167 0.412,-0.21 0.48,-0.217 0.732,-0.062 l 0.19,0.117 -0.13,0.398 c -0.108,0.332 -0.152,0.398 -0.264,0.4 -0.112,0 -0.134,-0.032 -0.134,-0.2 0,-0.53 -0.496,-0.424 -0.768,0.162 -0.068,0.148 -0.203,0.655 -0.3,1.13 -0.097,0.472 -0.186,0.867 -0.197,0.877 -0.052,0.044 -0.648,0.084 -0.648,0.043 z m 2.99,0 c 0,-0.028 0.097,-0.43 0.214,-0.894 0.128,-0.51 0.218,-1.016 0.224,-1.27 l 0.01,-0.426 -0.216,0.017 c -0.17,0.014 -0.223,-0.007 -0.246,-0.097 -0.024,-0.093 0.026,-0.132 0.277,-0.21 0.544,-0.167 0.672,-0.18 0.777,-0.072 0.054,0.055 0.097,0.166 0.097,0.247 0,0.081 0.01,0.147 0.024,0.147 0.014,0 0.19,-0.08 0.395,-0.177 0.48,-0.232 1.12,-0.353 1.31,-0.25 0.125,0.068 0.134,0.103 0.097,0.38 -0.022,0.17 -0.118,0.638 -0.215,1.043 -0.096,0.404 -0.182,0.83 -0.19,0.947 -0.017,0.212 -0.017,0.212 0.235,0.207 0.172,-0.003 0.262,0.024 0.286,0.086 0.047,0.126 -0.01,0.167 -0.384,0.278 -0.427,0.127 -0.818,0.128 -0.866,0.002 -0.02,-0.05 0.072,-0.58 0.203,-1.176 0.263,-1.192 0.278,-1.328 0.153,-1.377 -0.13,-0.05 -0.586,0.178 -0.86,0.428 -0.224,0.206 -0.253,0.27 -0.39,0.872 -0.083,0.357 -0.17,0.782 -0.192,0.943 -0.023,0.16 -0.073,0.302 -0.11,0.313 -0.18,0.055 -0.635,0.083 -0.635,0.04 z m 4.103,-0.047 c -0.02,-0.055 0.087,-0.617 0.238,-1.25 0.15,-0.633 0.26,-1.188 0.243,-1.233 -0.024,-0.063 -0.077,-0.07 -0.228,-0.025 -0.108,0.03 -0.204,0.057 -0.213,0.057 -0.009,0 -0.015,-0.063 -0.015,-0.14 0,-0.118 0.053,-0.157 0.314,-0.238 0.71,-0.217 0.928,-0.18 0.856,0.145 -0.017,0.078 -0.14,0.605 -0.274,1.17 -0.133,0.565 -0.227,1.068 -0.21,1.116 0.026,0.067 0.1,0.08 0.306,0.05 0.256,-0.035 0.27,-0.03 0.253,0.096 -0.036,0.26 -1.18,0.486 -1.27,0.252 z m 2.257,0 c -0.04,-0.105 0.01,-0.395 0.243,-1.45 0.258,-1.165 0.254,-1.062 0.038,-1.062 -0.263,0 -0.22,-0.167 0.086,-0.33 0.175,-0.093 0.283,-0.218 0.423,-0.49 0.154,-0.295 0.22,-0.367 0.356,-0.383 0.18,-0.02 0.182,-0.006 0.054,0.643 l -0.04,0.197 h 0.314 c 0.26,0 0.307,0.016 0.276,0.096 -0.02,0.053 -0.036,0.135 -0.036,0.182 0,0.064 -0.084,0.086 -0.32,0.086 h -0.323 l -0.197,1.02 c -0.11,0.563 -0.18,1.067 -0.16,1.12 0.03,0.082 0.073,0.09 0.234,0.043 0.274,-0.08 0.288,-0.076 0.288,0.086 0,0.123 -0.05,0.158 -0.348,0.243 -0.46,0.13 -0.84,0.13 -0.89,0 z m 2.46,-0.042 c -0.172,-0.15 -0.176,-0.165 -0.176,-0.753 0,-0.57 0.01,-0.62 0.226,-1.063 0.265,-0.542 0.568,-0.836 1.055,-1.02 0.85,-0.323 1.46,0.224 1.084,0.972 -0.212,0.42 -0.78,0.727 -1.355,0.73 -0.347,0 -0.37,0.01 -0.407,0.16 -0.05,0.202 0.012,0.507 0.132,0.644 0.136,0.157 0.37,0.13 0.787,-0.088 0.31,-0.163 0.38,-0.18 0.427,-0.106 0.105,0.17 0.053,0.235 -0.347,0.432 -0.31,0.15 -0.504,0.203 -0.828,0.22 -0.384,0.023 -0.44,0.01 -0.6,-0.128 z m 1.302,-1.634 c 0.404,-0.23 0.54,-0.684 0.26,-0.87 -0.11,-0.074 -0.19,-0.084 -0.315,-0.042 -0.212,0.07 -0.513,0.467 -0.638,0.838 l -0.096,0.287 0.275,-0.04 c 0.152,-0.02 0.383,-0.098 0.514,-0.173 z m -90.448,1.611 c 0.01,-0.06 0.073,-0.117 0.138,-0.13 0.178,-0.032 0.333,-0.192 0.455,-0.466 0.16,-0.365 0.656,-2.9 0.67,-3.425 0.01,-0.45 0.01,-0.455 -0.18,-0.578 -0.372,-0.24 -0.273,-0.276 0.76,-0.276 0.817,0 0.957,0.013 0.957,0.092 0,0.055 -0.075,0.108 -0.182,0.13 -0.38,0.077 -0.526,0.46 -0.886,2.34 -0.337,1.756 -0.333,1.722 -0.182,1.876 0.115,0.117 0.177,0.127 0.644,0.103 0.627,-0.032 0.853,-0.14 1.072,-0.507 0.173,-0.29 0.18,-0.295 0.303,-0.216 0.07,0.044 0.067,0.1 -0.015,0.348 -0.054,0.163 -0.16,0.405 -0.234,0.54 l -0.135,0.24 -1.604,0.018 c -1.5,0.015 -1.602,0.01 -1.583,-0.09 z m 30.256,0.018 c 0,-0.047 0.1,-0.136 0.225,-0.197 0.156,-0.076 0.264,-0.193 0.355,-0.383 0.172,-0.357 0.69,-2.942 0.7,-3.488 0.006,-0.414 0.002,-0.426 -0.186,-0.548 -0.4,-0.26 -0.31,-0.275 1.513,-0.275 1.672,0 1.708,0.002 1.67,0.12 -0.02,0.065 -0.07,0.304 -0.11,0.53 -0.064,0.35 -0.095,0.415 -0.207,0.43 -0.107,0.017 -0.13,-0.01 -0.13,-0.14 0,-0.402 -0.237,-0.515 -1.075,-0.515 h -0.578 l -0.166,0.774 c -0.09,0.425 -0.178,0.82 -0.194,0.88 -0.026,0.095 0.025,0.106 0.498,0.105 0.596,0 0.772,-0.064 0.946,-0.346 0.156,-0.25 0.36,-0.272 0.312,-0.03 l -0.14,0.727 c -0.083,0.444 -0.126,0.563 -0.206,0.563 -0.063,0 -0.113,-0.066 -0.135,-0.18 -0.02,-0.098 -0.096,-0.212 -0.17,-0.253 -0.145,-0.078 -1.086,-0.113 -1.155,-0.042 -0.04,0.04 -0.217,0.915 -0.295,1.458 -0.037,0.26 -0.027,0.293 0.113,0.386 0.123,0.082 0.256,0.097 0.676,0.076 0.623,-0.032 0.845,-0.133 1.102,-0.503 0.11,-0.16 0.216,-0.252 0.265,-0.233 0.117,0.046 0.103,0.154 -0.073,0.582 -0.262,0.636 -0.113,0.59 -1.948,0.59 -1.346,0 -1.606,-0.013 -1.606,-0.086 z m 30.388,0.002 c 0,-0.05 0.087,-0.118 0.194,-0.155 0.378,-0.13 0.503,-0.477 0.88,-2.442 0.326,-1.692 0.318,-1.963 -0.06,-2.085 -0.068,-0.022 -0.113,-0.07 -0.1,-0.11 0.017,-0.05 0.485,-0.076 1.682,-0.087 1.63,-0.015 1.66,-0.013 1.622,0.105 -0.02,0.066 -0.07,0.306 -0.112,0.532 -0.063,0.35 -0.095,0.415 -0.206,0.43 -0.11,0.018 -0.13,-0.008 -0.13,-0.166 0,-0.382 -0.293,-0.508 -1.104,-0.477 l -0.475,0.02 -0.167,0.788 c -0.092,0.435 -0.167,0.824 -0.17,0.866 -0.002,0.112 0.912,0.102 1.13,-0.012 0.093,-0.05 0.203,-0.172 0.244,-0.273 0.046,-0.113 0.12,-0.184 0.188,-0.184 0.14,0 0.14,-0.044 -0.016,0.774 -0.11,0.573 -0.15,0.683 -0.242,0.683 -0.066,0 -0.11,-0.044 -0.11,-0.11 0,-0.285 -0.558,-0.495 -1.075,-0.407 l -0.23,0.04 -0.12,0.678 c -0.214,1.197 -0.205,1.305 0.12,1.442 0.357,0.15 0.15,0.208 -0.808,0.225 -0.786,0.015 -0.937,0.003 -0.937,-0.07 z m -35.09,-1.306 c -0.267,-0.124 -0.502,-0.505 -0.502,-0.816 0,-0.482 0.42,-0.914 0.888,-0.912 0.56,0.002 0.906,0.35 0.906,0.91 0,0.71 -0.642,1.117 -1.292,0.818 z m 30.447,0.028 c -0.103,-0.045 -0.263,-0.184 -0.357,-0.308 -0.14,-0.185 -0.17,-0.285 -0.166,-0.542 0.008,-0.558 0.35,-0.9 0.898,-0.9 0.27,0 0.36,0.03 0.547,0.18 0.413,0.337 0.477,0.902 0.147,1.3 -0.277,0.334 -0.69,0.438 -1.07,0.27 z m -35.763,-2.157 c -0.118,-0.132 -0.126,-0.118 0.554,-0.904 l 0.23,-0.264 0.34,0.077 c 0.187,0.043 0.34,0.096 0.34,0.12 0,0.04 -1.28,1.092 -1.33,1.092 -0.015,0 -0.075,-0.054 -0.134,-0.12 z m 30.433,0 -0.133,-0.11 0.45,-0.522 c 0.25,-0.288 0.476,-0.523 0.504,-0.523 0.146,0 0.658,0.15 0.644,0.188 -0.015,0.04 -1.13,0.95 -1.273,1.04 -0.033,0.02 -0.12,-0.013 -0.192,-0.073 z m 39.765,0 -0.145,-0.11 0.468,-0.523 c 0.257,-0.287 0.488,-0.522 0.515,-0.522 0.118,0 0.655,0.146 0.652,0.178 -0.002,0.032 -1.132,0.957 -1.28,1.047 -0.036,0.022 -0.13,-0.01 -0.21,-0.07 z m -85.367,-0.312 c -0.243,-0.246 -0.005,-0.722 0.36,-0.722 0.255,0 0.388,0.137 0.388,0.396 0,0.406 -0.467,0.61 -0.746,0.327 z m 40.37,0.043 c -0.148,-0.113 -0.14,-0.488 0.014,-0.644 0.246,-0.25 0.717,-0.086 0.717,0.25 0,0.363 -0.454,0.61 -0.732,0.394 z m 39.727,-0.043 c -0.248,-0.25 -0.005,-0.722 0.372,-0.722 0.375,0 0.536,0.426 0.265,0.702 -0.184,0.187 -0.465,0.196 -0.637,0.02 z m -52.404,-1.735 c -0.092,-0.103 -0.07,-0.14 0.363,-0.618 l 0.46,-0.508 0.34,0.078 c 0.19,0.042 0.342,0.094 0.34,0.113 -0.005,0.058 -1.206,0.992 -1.31,1.02 -0.054,0.014 -0.14,-0.024 -0.194,-0.085 z"
       id="path4" />
    <path
       style="fill:#e2011c"
       d="m 191.30892,125.86643 0.14,-0.366 c 0.236,-0.66 0.48,-1.166 0.835,-1.72 0.376,-0.587 1.2,-1.45 1.545,-1.616 0.422,-0.204 0.946,-0.275 1.595,-0.218 0.557,0.05 2.27,0.333 2.96,0.49 0.525,0.12 1.295,0.133 1.657,0.026 0.698,-0.206 1.11,-0.605 1.307,-1.26 0.15,-0.502 0.15,-0.96 -0.004,-1.264 -0.205,-0.41 -0.17,-0.515 0.33,-1 0.246,-0.24 0.448,-0.46 0.45,-0.492 0,-0.162 -0.34,-0.813 -0.43,-0.815 -0.053,0 -0.16,-0.052 -0.236,-0.114 l -0.138,-0.114 0.296,-0.154 c 0.405,-0.21 0.705,-0.537 0.705,-0.767 0,-0.1 -0.085,-0.343 -0.19,-0.542 -0.2,-0.38 -0.253,-0.745 -0.14,-0.96 0.074,-0.14 0.203,-0.2 0.833,-0.385 0.53,-0.155 0.722,-0.313 0.797,-0.655 0.065,-0.293 0.033,-0.482 -0.14,-0.834 -0.14,-0.286 -1.06,-1.716 -1.33,-2.065 -0.36,-0.47 -0.797,-1.28 -0.927,-1.717 -0.127,-0.43 -0.128,-0.455 -0.035,-1.01 0.197,-1.175 0.082,-2.15 -0.48,-4.047 -0.416,-1.412 -0.528,-1.754 -0.66,-2.018 -0.235,-0.478 -0.203,-0.59 0.28,-0.992 0.233,-0.192 0.448,-0.4 0.48,-0.458 0.146,-0.278 -0.018,-0.811999 -0.295,-0.962999 -0.175,-0.095 -0.273,-0.03 -0.452,0.302999 -0.135,0.253 -0.188,0.3 -0.333,0.3 -0.236,0 -0.277,-0.1 -0.126,-0.306 0.174,-0.239999 0.16,-0.279999 -0.115,-0.317999 -0.207,-0.028 -0.316,-0.11 -0.763,-0.572 -0.6,-0.62 -1.003,-0.905 -1.806,-1.28 -0.368,-0.172 -0.496,-0.253 -0.36,-0.23 0.114,0.02 0.52,0.054 0.904,0.074 1.11,0.056 1.38,-0.093 1.638,-0.904 0.175,-0.55 0.26,-0.806 -0.143,-1.19 l -1.48,-1.414 h 33.183 v 31.566999 h -39.354 z"
       id="path6-6" />
    <path
       style="fill:#003189"
       d="m 163.01092,125.86643 c -0.24,-0.026 -0.45,-0.037 -0.464,-0.05 -0.026,-0.027 0.246,-0.204 1.492,-0.975 0.4,-0.247 0.564,-0.38 0.51,-0.41 -0.047,-0.024 -0.395,-0.063 -0.777,-0.086 -0.567,-0.034 -0.73,-0.024 -0.898,0.054 -0.112,0.052 -0.56,0.19 -0.996,0.306 -1.08,0.287 -1.444,0.485 -1.79,0.973 l -0.13,0.187 h -21.295 V 94.299431 h 42.252 l -0.82,0.542 c -0.45,0.227 -0.974,0.543 -1.163,0.7 -0.644,0.538 -1.51,1.76 -1.725,2.436 -0.08,0.248 -0.152,0.342 -0.396,0.51 -0.373,0.258 -0.818,0.75 -1.187,1.308 -0.5,0.759999 -1.455,2.469999 -1.643,2.945999 -0.29,0.736 -0.265,1.297 0.165,3.498 0.19,0.97 0.394,1.953 0.455,2.187 0.06,0.233 0.127,0.63 0.148,0.88 0.037,0.448 0.065,0.545 0.323,1.094 0.072,0.15 0.13,0.322 0.13,0.38 0,0.058 0.053,0.14 0.12,0.182 0.067,0.043 0.12,0.14 0.12,0.23 0,0.104 0.135,0.304 0.434,0.637 0.685,0.762 1.18,1.477 1.18,1.703 0,0.186 -0.27,0.234 -0.7,0.125 -0.507,-0.126 -0.92,-0.4 -1.558,-1.03 -0.272,-0.268 -0.494,-0.448 -0.494,-0.4 0,0.048 0.186,0.297 0.414,0.554 0.452,0.51 0.523,0.65 0.425,0.835 -0.084,0.163 -0.293,0.21 -0.574,0.13 -0.325,-0.09 -0.516,0.037 -0.462,0.31 0.033,0.166 0.024,0.186 -0.07,0.15 -0.183,-0.072 -0.585,-0.154 -0.947,-0.194 -0.332,-0.036 -0.356,-0.05 -0.557,-0.335 -0.153,-0.216 -0.27,-0.315 -0.43,-0.36 -0.594,-0.17 -2.07,-0.43 -3.062,-0.54 -1.742,-0.195 -2.162,-0.21 -2.997,-0.11 -0.64,0.077 -0.814,0.123 -1.165,0.304 -0.622,0.32 -1.7,1.326 -1.7,1.585 0,0.12 0.238,0.078 0.51,-0.092 0.823,-0.518 3.64,-1.248 5.024,-1.302 0.685,-0.027 0.647,0.007 -0.175,0.156 -0.227,0.04 -0.766,0.18 -1.196,0.31 -0.432,0.13 -1.174,0.33 -1.65,0.444 -0.476,0.114 -1.017,0.263 -1.198,0.33 l -0.33,0.12 0.51,0.004 c 2.59,0.03 5.544,0.864 6.745,1.907 0.517,0.45 0.707,0.503 1.468,0.422 1.042,-0.11 2.39,-0.617 2.983,-1.117 0.257,-0.217 0.468,-0.303 0.468,-0.19 0,0.197 -0.34,1.264 -0.488,1.53 -0.164,0.294 -0.173,0.336 -0.088,0.4 0.053,0.04 0.08,0.086 0.062,0.104 -0.018,0.02 0.022,0.053 0.09,0.075 0.197,0.062 0.148,0.123 -0.166,0.204 -0.305,0.08 -0.547,0.22 -0.547,0.316 0,0.03 0.04,0.057 0.093,0.057 0.153,0 0.04,0.11 -0.162,0.154 -0.137,0.032 -0.164,0.057 -0.103,0.096 0.06,0.038 0.062,0.053 0.008,0.054 -0.04,0 -0.075,0.062 -0.075,0.138 0,0.094 -0.056,0.162 -0.18,0.218 -0.3,0.134 -0.215,0.207 0.195,0.168 0.206,-0.02 0.334,-0.02 0.284,0 -0.05,0.02 -0.387,0.175 -0.75,0.344 -0.363,0.169 -0.83,0.37 -1.045,0.446 -0.242,0.086 -0.397,0.177 -0.41,0.24 -0.02,0.103 0.09,0.1 0.374,-0.01 0.052,-0.02 0.094,-0.014 0.093,0.015 -0.001,0.029 -0.624,0.392 -1.384,0.81 -0.762,0.418 -1.474,0.848 -1.583,0.957 -0.11,0.108 -0.25,0.197 -0.31,0.197 -0.063,0 -0.144,0.07 -0.182,0.155 -0.117,0.258 -0.092,0.29 0.184,0.24 0.41,-0.07 0.6,-0.067 0.627,0.014 0.015,0.044 -0.024,0.076 -0.092,0.076 -0.064,0 -0.15,0.04 -0.19,0.088 -0.038,0.048 -0.142,0.096 -0.23,0.106 -0.1,0.012 -0.202,0.088 -0.28,0.212 -0.065,0.106 -0.174,0.207 -0.24,0.225 -0.065,0.018 0.03,0.02 0.21,0.007 2.69,-0.203 3.192,-0.304 4.277,-0.863 0.926,-0.476 1.887,-1.184 2.57,-1.894 0.197,-0.204 0.378,-0.37 0.404,-0.37 0.093,0 0.043,0.34 -0.095,0.64 -0.236,0.517 -0.735,0.995 -1.76,1.685 -0.516,0.348 -1.073,0.676 -1.238,0.73 -0.514,0.163 -1.343,0.338 -2.213,0.466 -2.835,0.417 -3.92,0.732 -4.993,1.453 -0.18,0.12 -0.37,0.212 -0.42,0.203 -0.05,-0.01 -0.186,0.066 -0.3,0.165 -0.324,0.28 -0.09,0.234 0.58,-0.116 0.686,-0.36 1.007,-0.416 0.466,-0.083 -0.664,0.412 -1.17,0.668 -1.664,0.668 h -2.663 z m -3.52,-3.52 c 0.107,-0.047 0.463,-0.25 0.79,-0.45 0.328,-0.202 0.717,-0.423 0.865,-0.49 0.148,-0.07 0.565,-0.26 0.927,-0.427 0.758,-0.347 1.872,-0.675 1.936,-0.57 0.022,0.037 0.188,0.078 0.368,0.09 0.252,0.02 0.297,0.035 0.193,0.072 -0.074,0.027 -0.134,0.073 -0.134,0.102 0,0.11 0.56,0.077 0.795,-0.047 0.093,-0.048 0.3,-0.104 0.464,-0.123 0.202,-0.025 0.296,-0.064 0.296,-0.124 0,-0.07 0.05,-0.08 0.234,-0.048 0.25,0.043 0.792,-0.06 2.248,-0.43 0.987,-0.253 1.733,-0.506 2.39,-0.81 l 0.474,-0.22 -0.474,-0.31 c -1.158,-0.753 -2.32,-1.215 -4.872,-1.937 -0.444,-0.126 -0.835,-0.256 -0.867,-0.29 -0.04,-0.04 -0.02,-0.045 0.06,-0.016 0.255,0.092 0.45,0.11 0.45,0.04 0,-0.09 -0.194,-0.162 -0.572,-0.215 -0.346,-0.048 -0.57,-0.153 -0.33,-0.154 0.373,-0.002 -0.267,-0.24 -0.983,-0.368 -0.53,-0.093 -0.56,-0.113 -0.34,-0.222 0.193,-0.095 0.4,-0.455 0.346,-0.6 -0.045,-0.122 -0.103,-0.11 -0.39,0.086 -0.553,0.378 -1.06,0.995 -1.345,1.64 -0.163,0.366 -0.106,0.4 0.73,0.436 0.686,0.03 0.697,0.032 0.52,0.128 -0.097,0.054 -0.295,0.116 -0.44,0.138 -0.485,0.076 -0.756,0.31 -0.514,0.448 0.072,0.04 0.044,0.075 -0.132,0.16 -0.197,0.095 -0.21,0.116 -0.116,0.17 0.06,0.033 0.23,0.05 0.382,0.038 0.21,-0.017 0.306,0.006 0.407,0.098 l 0.133,0.12 -0.265,0.17 c -0.146,0.094 -0.31,0.26 -0.367,0.366 -0.055,0.107 -0.255,0.362 -0.445,0.566 -0.19,0.204 -0.344,0.416 -0.344,0.47 0,0.054 -0.275,0.322 -0.612,0.596 -0.907,0.737 -1.3,1.142 -1.3,1.337 0,0.103 -0.052,0.196 -0.142,0.256 -0.283,0.188 -0.43,0.406 -0.276,0.406 0.034,0 0.15,-0.04 0.258,-0.084 z m 6.997,-0.71 c 0.224,-0.03 0.484,-0.102 0.577,-0.158 l 0.17,-0.102 -0.29,-0.146 -0.288,-0.146 -0.288,0.118 c -0.16,0.065 -0.378,0.153 -0.488,0.195 -0.44,0.17 -0.5,0.397 -0.084,0.334 0.156,-0.023 0.467,-0.068 0.69,-0.098 z m -10.128,-2.763 c 1.333,-1.416 2.274,-2.255 3.468,-3.095 0.406,-0.287 0.692,-0.452 0.706,-0.41 0.04,0.12 0.213,0.084 0.496,-0.098 0.326,-0.21 0.488,-0.422 0.894,-1.166 0.42,-0.772 0.58,-0.964 1.188,-1.44 0.285,-0.222 0.703,-0.554 0.93,-0.737 0.328,-0.266 0.407,-0.308 0.38,-0.203 -0.02,0.08 -0.006,0.132 0.038,0.132 0.135,0 0.776,-0.278 0.798,-0.347 0.036,-0.107 -0.615,-0.218 -1.096,-0.187 -0.37,0.024 -0.5,0.068 -0.96,0.32 -1.076,0.59 -1.854,1.227 -3.34,2.734 -1.07,1.085 -1.912,1.813 -2.338,2.02 -0.138,0.066 -0.243,0.207 -0.41,0.553 -0.328,0.674 -0.912,1.64 -1.466,2.425 -0.523,0.742 -0.636,1 -0.23,0.523 0.14,-0.162 0.565,-0.624 0.943,-1.026 z m 13.34,6.645 c 1.6,-0.34 1.777,-0.364 2.9,-0.414 1.263,-0.056 1.423,-0.09 2.182,-0.45 0.242,-0.117 0.338,-0.138 0.37,-0.084 0.06,0.096 0.472,-0.132 1.276,-0.705 0.33,-0.234 0.795,-0.533 1.034,-0.665 0.36,-0.198 0.472,-0.232 0.645,-0.2 0.186,0.036 0.24,0.013 0.478,-0.2 0.656,-0.585 1.217,-0.857 1.776,-0.86 0.166,0 0.224,0.026 0.224,0.098 0,0.062 0.033,0.085 0.09,0.063 0.166,-0.065 0.09,0.01 -0.338,0.332 -0.497,0.374 -0.448,0.486 0.057,0.13 0.49,-0.342 0.49,-0.343 0.49,-0.204 0,0.08 -0.184,0.28 -0.524,0.567 -0.773,0.654 -1.32,1.195 -2.152,2.13 l -0.745,0.81 h -9.47 l 1.704,-0.348 z m 0.015,-12.366 c 0.057,-0.016 0.152,-0.016 0.21,0 0.057,0.015 0.01,0.027 -0.106,0.027 -0.116,0 -0.162,-0.01 -0.104,-0.026 z"
       id="path8-7" />
    <path
       style="fill:#7f7f7f"
       d="m 197.61792,110.84343 c -0.26,-0.04 -0.126,-0.14 0.19,-0.14 0.317,0 0.484,-0.123 0.484,-0.357 0,-0.11 -0.024,-0.13 -0.126,-0.096 -0.087,0.03 -0.15,0.006 -0.207,-0.078 -0.053,-0.078 -0.183,-0.133 -0.374,-0.158 -0.34,-0.046 -0.894,-0.38 -0.795,-0.482 0.034,-0.034 0.21,-0.074 0.39,-0.09 0.312,-0.026 0.333,-0.038 0.396,-0.233 0.047,-0.146 0.113,-0.217 0.227,-0.244 0.088,-0.02 0.228,-0.1 0.31,-0.178 0.082,-0.077 0.35,-0.274 0.598,-0.437 0.415,-0.274 0.672,-0.567 0.58,-0.66 -0.097,-0.1 -0.995,-0.206 -1.417,-0.17 -0.49,0.043 -1.336,0.224 -1.69,0.363 -0.362,0.142 -0.256,0.018 0.243,-0.282 0.673,-0.405 1.97,-0.783 2.686,-0.783 0.277,0 1.207,0.223 1.318,0.317 0.217,0.182 -0.02,0.824 -0.423,1.144 l -0.168,0.133 0.14,0.15 0.137,0.15 -0.14,0.117 c -0.08,0.064 -0.185,0.116 -0.238,0.116 -0.053,0 -0.182,0.086 -0.288,0.19 -0.163,0.16 -0.184,0.213 -0.137,0.338 0.037,0.098 0.033,0.193 -0.01,0.274 -0.04,0.077 -0.05,0.25 -0.026,0.45 0.05,0.403 -0.022,0.547 -0.312,0.63 -0.216,0.06 -1.005,0.072 -1.347,0.02 z"
       id="path10-5" />
  </g>
</svg>
