<?xml version="1.0" encoding="UTF-8" standalone="no"?>
<svg
   xmlns:dc="http://purl.org/dc/elements/1.1/"
   xmlns:cc="http://creativecommons.org/ns#"
   xmlns:rdf="http://www.w3.org/1999/02/22-rdf-syntax-ns#"
   xmlns:svg="http://www.w3.org/2000/svg"
   xmlns="http://www.w3.org/2000/svg"
   xml:space="preserve"
   style="enable-background:new 0 0 455 455;"
   viewBox="0 0 455 455"
   y="0px"
   x="0px"
   id="Layer_1"
   version="1.1"><metadata
   id="metadata45"><rdf:RDF><cc:Work
       rdf:about=""><dc:format>image/svg+xml</dc:format><dc:type
         rdf:resource="http://purl.org/dc/dcmitype/StillImage" /><dc:title></dc:title></cc:Work></rdf:RDF></metadata><defs
   id="defs43" />
<g
   id="g8">
	<polygon
   id="polygon2"
   points="395,52.5 278.333,52.5 278.333,12.5 248.333,12.5 248.333,52.5 146.667,52.5 146.667,12.5 116.667,12.5    116.667,52.5 0,52.5 0,117.5 395,117.5  " />
	<polygon
   id="polygon4"
   points="425,112.5 425,382.5 425,412.5 395,412.5 60,412.5 60,442.5 455,442.5 455,112.5  " />
	<path
   id="path6"
   d="M395,147.5H0v235h395V147.5z M132.5,335h-50v-50h50V335z M132.5,245h-50v-50h50V245z M222.5,335h-50v-50h50V335z    M222.5,245h-50v-50h50V245z M312.5,335h-50v-50h50V335z M312.5,245h-50v-50h50V245z" />
</g>
<g
   id="g10">
</g>
<g
   id="g12">
</g>
<g
   id="g14">
</g>
<g
   id="g16">
</g>
<g
   id="g18">
</g>
<g
   id="g20">
</g>
<g
   id="g22">
</g>
<g
   id="g24">
</g>
<g
   id="g26">
</g>
<g
   id="g28">
</g>
<g
   id="g30">
</g>
<g
   id="g32">
</g>
<g
   id="g34">
</g>
<g
   id="g36">
</g>
<g
   id="g38">
</g>
<path
   id="path858"
   d="M 1.1567797,85.023305 V 53.211864 H 58.995763 116.83475 V 32.96822 12.724576 h 14.45974 14.45975 V 32.96822 53.211864 h 52.05508 52.05509 V 32.96822 12.724576 h 13.49576 13.49576 V 32.96822 53.211864 h 58.80297 58.80296 V 85.023305 116.83475 H 197.80932 1.1567797 Z"
   style="opacity:1;fill:#ffffff;fill-opacity:1;fill-rule:nonzero;stroke:#ffffff;stroke-width:7.28680134;stroke-linecap:round;stroke-linejoin:round;stroke-miterlimit:4;stroke-dasharray:none;stroke-dashoffset:0;stroke-opacity:1" /><path
   id="path860"
   d="m 455.15052,277.81992 c 1.3e-4,-91.1928 0.23585,-128.21692 0.52383,-82.27582 0.28799,45.9411 0.28788,120.55338 -2.3e-4,165.80508 -0.28811,45.2517 -0.52373,7.66353 -0.5236,-83.52926 z"
   style="opacity:1;fill:#ffffff;fill-opacity:1;fill-rule:nonzero;stroke:#ffffff;stroke-width:7.28680134;stroke-linecap:round;stroke-linejoin:round;stroke-miterlimit:4;stroke-dasharray:none;stroke-dashoffset:0;stroke-opacity:1" /><path
   id="path862"
   d="M 1.1567797,264.32415 V 147.6822 H 197.80932 394.46186 V 264.32415 380.9661 H 197.80932 1.1567797 Z m 132.6036303,45.7892 0.53795,-25.54555 h -26.0835 -26.083504 v 26.0835 26.0835 l 25.545554,-0.53795 25.54555,-0.53795 z m 89.11247,0.48199 V 284.5678 H 196.84534 170.8178 v 24.74223 c 0,13.60823 0.57839,25.32062 1.28531,26.02754 0.70692,0.70692 12.41931,1.28531 26.02755,1.28531 h 24.74222 z m 90.61441,0 V 284.5678 H 287.45975 261.4322 v 26.02754 26.02754 h 26.02755 26.02754 z M 134.18644,219.98093 V 193.95339 H 108.1589 82.131356 v 26.02754 26.02754 h 26.027544 26.02754 z m 88.68644,0 V 193.95339 H 196.84534 170.8178 v 26.02754 26.02754 h 26.02754 26.02754 z m 90.61441,0 V 193.95339 H 287.45975 261.4322 v 26.02754 26.02754 h 26.02755 26.02754 z"
   style="opacity:1;fill:#ffffff;fill-opacity:1;fill-rule:nonzero;stroke:#ffffff;stroke-width:7.28680134;stroke-linecap:round;stroke-linejoin:round;stroke-miterlimit:4;stroke-dasharray:none;stroke-dashoffset:0;stroke-opacity:1" /><path
   id="path864"
   d="M 60.923729,427.23729 V 413.74153 H 243.11653 425.30932 V 263.36017 112.97881 h 14.45975 14.45974 v 29.7697 c 0,17.76678 -0.77733,30.25011 -1.92796,30.96124 -2.65028,1.63796 -2.65028,208.51034 0,210.1483 1.1413,0.70537 1.92796,12.55179 1.92796,29.03328 v 27.84172 H 257.57627 60.923729 Z"
   style="opacity:1;fill:#ffffff;fill-opacity:1;fill-rule:nonzero;stroke:#ffffff;stroke-width:7.28680134;stroke-linecap:round;stroke-linejoin:round;stroke-miterlimit:4;stroke-dasharray:none;stroke-dashoffset:0;stroke-opacity:1" /></svg>