<?xml version="1.0" encoding="UTF-8" standalone="no"?>
<svg
   xmlns:dc="http://purl.org/dc/elements/1.1/"
   xmlns:cc="http://creativecommons.org/ns#"
   xmlns:rdf="http://www.w3.org/1999/02/22-rdf-syntax-ns#"
   xmlns:svg="http://www.w3.org/2000/svg"
   xmlns="http://www.w3.org/2000/svg"
   xml:space="preserve"
   style="enable-background:new 0 0 30.34 30.34;"
   viewBox="0 0 30.34 30.34"
   y="0px"
   x="0px"
   id="Capa_1"
   version="1.1"><metadata
   id="metadata71"><rdf:RDF><cc:Work
       rdf:about=""><dc:format>image/svg+xml</dc:format><dc:type
         rdf:resource="http://purl.org/dc/dcmitype/StillImage" /><dc:title></dc:title></cc:Work></rdf:RDF></metadata><defs
   id="defs69" />
<g
   style="fill:#ffffff"
   transform="matrix(-1,0,0,1,30.33968,0)"
   id="g34">
	<path
   style="fill:#ffffff"
   id="path2"
   d="m 22.562,12.491 c 0,0 1.227,-0.933 0.293,-1.866 -0.934,-0.933 -1.842,0.271 -1.842,0.271 l -9.389,9.391 c 0,0 -2.199,2.838 -3.871,1.122 -1.67,-1.718 1.121,-3.872 1.121,-3.872 L 21.185,5.227 c 0,0 2.873,-3.165 5.574,-0.466 2.697,2.7 -0.477,5.579 -0.477,5.579 L 12.449,24.173 c 0,0 -4.426,5.113 -8.523,1.015 -4.097,-4.098 1.066,-8.474 1.066,-8.474 L 15.494,6.209 c 0,0 1.176,-0.982 0.295,-1.866 C 14.904,3.46 13.924,4.638 13.924,4.638 L 1.873,16.689 c 0,0 -4.549,4.989 0.531,10.068 5.08,5.082 10.072,0.533 10.072,0.533 L 29.039,10.725 c 0,0 3.314,-3.655 -0.637,-7.608 C 24.451,-0.836 20.795,2.478 20.795,2.478 L 6.543,16.728 c 0,0 -3.65,2.969 -0.338,6.279 3.312,3.314 6.227,-0.39 6.227,-0.39 z" />
	<g
   style="fill:#ffffff"
   id="g4">
	</g>
	<g
   style="fill:#ffffff"
   id="g6">
	</g>
	<g
   style="fill:#ffffff"
   id="g8">
	</g>
	<g
   style="fill:#ffffff"
   id="g10">
	</g>
	<g
   style="fill:#ffffff"
   id="g12">
	</g>
	<g
   style="fill:#ffffff"
   id="g14">
	</g>
	<g
   style="fill:#ffffff"
   id="g16">
	</g>
	<g
   style="fill:#ffffff"
   id="g18">
	</g>
	<g
   style="fill:#ffffff"
   id="g20">
	</g>
	<g
   style="fill:#ffffff"
   id="g22">
	</g>
	<g
   style="fill:#ffffff"
   id="g24">
	</g>
	<g
   style="fill:#ffffff"
   id="g26">
	</g>
	<g
   style="fill:#ffffff"
   id="g28">
	</g>
	<g
   style="fill:#ffffff"
   id="g30">
	</g>
	<g
   style="fill:#ffffff"
   id="g32">
	</g>
</g>
<g
   id="g36">
</g>
<g
   id="g38">
</g>
<g
   id="g40">
</g>
<g
   id="g42">
</g>
<g
   id="g44">
</g>
<g
   id="g46">
</g>
<g
   id="g48">
</g>
<g
   id="g50">
</g>
<g
   id="g52">
</g>
<g
   id="g54">
</g>
<g
   id="g56">
</g>
<g
   id="g58">
</g>
<g
   id="g60">
</g>
<g
   id="g62">
</g>
<g
   id="g64">
</g>
</svg>