<?xml version="1.0" encoding="UTF-8" standalone="no"?>
<!-- Generator: Adobe Illustrator 19.0.0, SVG Export Plug-In . SVG Version: 6.00 Build 0)  -->

<svg
   xmlns:dc="http://purl.org/dc/elements/1.1/"
   xmlns:cc="http://creativecommons.org/ns#"
   xmlns:rdf="http://www.w3.org/1999/02/22-rdf-syntax-ns#"
   xmlns:svg="http://www.w3.org/2000/svg"
   xmlns="http://www.w3.org/2000/svg"
   xmlns:sodipodi="http://sodipodi.sourceforge.net/DTD/sodipodi-0.dtd"
   xmlns:inkscape="http://www.inkscape.org/namespaces/inkscape"
   version="1.1"
   id="Layer_1"
   x="0px"
   y="0px"
   viewBox="0 0 508 508"
   style="enable-background:new 0 0 508 508;"
   xml:space="preserve"
   sodipodi:docname="calendar-page.svg"
   inkscape:version="0.92.4 5da689c313, 2019-01-14"><metadata
   id="metadata81"><rdf:RDF><cc:Work
       rdf:about=""><dc:format>image/svg+xml</dc:format><dc:type
         rdf:resource="http://purl.org/dc/dcmitype/StillImage" /></cc:Work></rdf:RDF></metadata><defs
   id="defs79" /><sodipodi:namedview
   pagecolor="#ffffff"
   bordercolor="#666666"
   borderopacity="1"
   objecttolerance="10"
   gridtolerance="10"
   guidetolerance="10"
   inkscape:pageopacity="0"
   inkscape:pageshadow="2"
   inkscape:window-width="1920"
   inkscape:window-height="1143"
   id="namedview77"
   showgrid="false"
   inkscape:zoom="0.46456693"
   inkscape:cx="254"
   inkscape:cy="254"
   inkscape:window-x="0"
   inkscape:window-y="28"
   inkscape:window-maximized="1"
   inkscape:current-layer="Layer_1" />
<path
   style="fill:#F2F2F2;"
   d="M506,508H2c-1.1,0-2-0.9-2-2V169h508v337C508,507.1,507.1,508,506,508z"
   id="path2" />
<path
   style="fill:#94bd5e;fill-opacity:1"
   d="M486.8,56.4H21.2C9.5,56.4,0,65.9,0,77.6V169h508V77.6C508,65.9,498.5,56.4,486.8,56.4z"
   id="path4" />
<g
   id="g28">
	<rect
   x="36"
   y="218.7"
   style="fill:#CDD6E0;"
   width="71.5"
   height="71.5"
   id="rect6" />
	<rect
   x="36"
   y="400.9"
   style="fill:#CDD6E0;"
   width="71.5"
   height="71.5"
   id="rect8" />
	<rect
   x="36"
   y="309.8"
   style="fill:#CDD6E0;"
   width="71.5"
   height="71.5"
   id="rect10" />
	<rect
   x="127.1"
   y="218.7"
   style="fill:#CDD6E0;"
   width="71.5"
   height="71.5"
   id="rect12" />
	<rect
   x="127.1"
   y="400.9"
   style="fill:#CDD6E0;"
   width="71.5"
   height="71.5"
   id="rect14" />
	<rect
   x="127.1"
   y="309.8"
   style="fill:#CDD6E0;"
   width="71.5"
   height="71.5"
   id="rect16" />
	<rect
   x="218.2"
   y="218.7"
   style="fill:#CDD6E0;"
   width="71.5"
   height="71.5"
   id="rect18" />
	<rect
   x="218.2"
   y="400.9"
   style="fill:#CDD6E0;"
   width="71.5"
   height="71.5"
   id="rect20" />
	<rect
   x="218.2"
   y="309.8"
   style="fill:#CDD6E0;"
   width="71.5"
   height="71.5"
   id="rect22" />
	<rect
   x="309.3"
   y="218.7"
   style="fill:#CDD6E0;"
   width="71.5"
   height="71.5"
   id="rect24" />
	<rect
   x="309.3"
   y="400.9"
   style="fill:#CDD6E0;"
   width="71.5"
   height="71.5"
   id="rect26" />
</g>
<rect
   x="309.3"
   y="309.8"
   style="fill:#FF7058;"
   width="71.5"
   height="71.5"
   id="rect30" />
<g
   id="g38">
	<rect
   x="400.4"
   y="218.7"
   style="fill:#CDD6E0;"
   width="71.5"
   height="71.5"
   id="rect32" />
	<rect
   x="400.4"
   y="400.9"
   style="fill:#CDD6E0;"
   width="71.5"
   height="71.5"
   id="rect34" />
	<rect
   x="400.4"
   y="309.8"
   style="fill:#CDD6E0;"
   width="71.5"
   height="71.5"
   id="rect36" />
</g>
<g
   id="g44">
	<path
   style="fill:#40596B;"
   d="M137,112.7H85.6c-1.5,0-2.7-1.2-2.7-2.7V2.7c0-1.5,1.2-2.7,2.7-2.7H137c1.5,0,2.7,1.2,2.7,2.7V110   C139.6,111.5,138.4,112.7,137,112.7z"
   id="path40" />
	<path
   style="fill:#40596B;"
   d="M422.4,112.7H371c-1.5,0-2.7-1.2-2.7-2.7V2.7c0-1.5,1.2-2.7,2.7-2.7h51.4c1.5,0,2.7,1.2,2.7,2.7V110   C425.1,111.5,423.9,112.7,422.4,112.7z"
   id="path42" />
</g>
<g
   id="g46">
</g>
<g
   id="g48">
</g>
<g
   id="g50">
</g>
<g
   id="g52">
</g>
<g
   id="g54">
</g>
<g
   id="g56">
</g>
<g
   id="g58">
</g>
<g
   id="g60">
</g>
<g
   id="g62">
</g>
<g
   id="g64">
</g>
<g
   id="g66">
</g>
<g
   id="g68">
</g>
<g
   id="g70">
</g>
<g
   id="g72">
</g>
<g
   id="g74">
</g>
</svg>