<?xml version="1.0" encoding="UTF-8" standalone="no"?>
<!-- Generator: Adobe Illustrator 19.0.0, SVG Export Plug-In . SVG Version: 6.00 Build 0)  -->

<svg
   xmlns:dc="http://purl.org/dc/elements/1.1/"
   xmlns:cc="http://creativecommons.org/ns#"
   xmlns:rdf="http://www.w3.org/1999/02/22-rdf-syntax-ns#"
   xmlns:svg="http://www.w3.org/2000/svg"
   xmlns="http://www.w3.org/2000/svg"
   xmlns:sodipodi="http://sodipodi.sourceforge.net/DTD/sodipodi-0.dtd"
   xmlns:inkscape="http://www.inkscape.org/namespaces/inkscape"
   version="1.1"
   id="Layer_1"
   x="0px"
   y="0px"
   viewBox="0 0 512 512"
   style="enable-background:new 0 0 512 512;"
   xml:space="preserve"
   sodipodi:docname="newspaper-page.svg"
   inkscape:version="0.92.4 5da689c313, 2019-01-14"><metadata
   id="metadata69"><rdf:RDF><cc:Work
       rdf:about=""><dc:format>image/svg+xml</dc:format><dc:type
         rdf:resource="http://purl.org/dc/dcmitype/StillImage" /><dc:title /></cc:Work></rdf:RDF></metadata><defs
   id="defs67">
	
	
	
	
	
	
</defs><sodipodi:namedview
   pagecolor="#ffffff"
   bordercolor="#666666"
   borderopacity="1"
   objecttolerance="10"
   gridtolerance="10"
   guidetolerance="10"
   inkscape:pageopacity="0"
   inkscape:pageshadow="2"
   inkscape:window-width="1920"
   inkscape:window-height="1143"
   id="namedview65"
   showgrid="false"
   inkscape:zoom="0.4609375"
   inkscape:cx="-119.32203"
   inkscape:cy="-4.3389831"
   inkscape:window-x="0"
   inkscape:window-y="28"
   inkscape:window-maximized="1"
   inkscape:current-layer="Layer_1" />
<polygon
   style="fill:#ECE7EA;"
   points="512,73.956 512,494.933 0,494.933 0,73.956 256,51.2 "
   id="polygon2" />
<polygon
   style="fill:#94bd5e;fill-opacity:1"
   points="512,17.067 512,73.956 455.111,73.956 420.978,45.511 455.111,17.067 "
   id="polygon4" />
<rect
   y="17.067"
   style="fill:#40596b;fill-opacity:1"
   width="455.111"
   height="56.889"
   id="rect6" />
<path
   style="fill:#D6CED1;"
   d="M443.733,258.844H68.267c-4.714,0-8.533-3.821-8.533-8.533c0-4.713,3.82-8.533,8.533-8.533h375.467  c4.714,0,8.533,3.821,8.533,8.533C452.267,255.024,448.447,258.844,443.733,258.844z"
   id="path8" />
<g
   id="g16">
	<path
   style="fill:#8B7E7F;"
   d="M233.244,304.356H68.267c-4.714,0-8.533-3.821-8.533-8.533s3.82-8.533,8.533-8.533h164.978   c4.714,0,8.533,3.821,8.533,8.533S237.958,304.356,233.244,304.356z"
   id="path10" />
	<path
   style="fill:#8B7E7F;"
   d="M233.244,349.867H68.267c-4.714,0-8.533-3.821-8.533-8.533s3.82-8.533,8.533-8.533h164.978   c4.714,0,8.533,3.821,8.533,8.533S237.958,349.867,233.244,349.867z"
   id="path12" />
	<path
   style="fill:#8B7E7F;"
   d="M233.244,395.378H68.267c-4.714,0-8.533-3.821-8.533-8.533s3.82-8.533,8.533-8.533h164.978   c4.714,0,8.533,3.821,8.533,8.533S237.958,395.378,233.244,395.378z"
   id="path14" />
</g>
<rect
   x="278.756"
   y="295.822"
   style="fill:#94bd5e;fill-opacity:1"
   width="164.978"
   height="136.533"
   id="rect18" />
<path
   inkscape:connector-curvature="0"
   id="path20"
   d="M 233.244,440.889 H 68.267 c -4.714,0 -8.533,-3.821 -8.533,-8.533 0,-4.712 3.82,-8.533 8.533,-8.533 h 164.978 c 4.714,0 8.533,3.821 8.533,8.533 0,4.712 -3.82,8.533 -8.534,8.533 z"
   style="fill:#8b7e7f" />
<g
   id="g34">
</g>
<g
   id="g36">
</g>
<g
   id="g38">
</g>
<g
   id="g40">
</g>
<g
   id="g42">
</g>
<g
   id="g44">
</g>
<g
   id="g46">
</g>
<g
   id="g48">
</g>
<g
   id="g50">
</g>
<g
   id="g52">
</g>
<g
   id="g54">
</g>
<g
   id="g56">
</g>
<g
   id="g58">
</g>
<g
   id="g60">
</g>
<g
   id="g62">
</g>
<g
   aria-label="Infos"
   transform="scale(0.89500007,1.1173184)"
   style="font-style:normal;font-variant:normal;font-weight:bold;font-stretch:normal;font-size:161.24452209px;line-height:100.77783203px;font-family:sans-serif;-inkscape-font-specification:'sans-serif, Bold';font-variant-ligatures:normal;font-variant-caps:normal;font-variant-numeric:normal;font-feature-settings:normal;text-align:start;letter-spacing:0px;word-spacing:0px;writing-mode:lr-tb;text-anchor:start;fill:#8b7e7f;fill-opacity:0.94117647;stroke:none;stroke-width:4.03111362"
   id="text884"><path
     d="m 69.550988,86.495479 h 30.31208 V 204.04337 h -30.31208 z"
     style="font-style:normal;font-variant:normal;font-weight:bold;font-stretch:normal;font-size:161.24452209px;font-family:sans-serif;-inkscape-font-specification:'sans-serif, Bold';font-variant-ligatures:normal;font-variant-caps:normal;font-variant-numeric:normal;font-feature-settings:normal;text-align:start;writing-mode:lr-tb;text-anchor:start;fill:#8b7e7f;fill-opacity:0.94117647;stroke-width:4.03111362"
     id="path974" /><path
     d="m 216.93856,150.34768 v 53.69569 H 188.5948 v -8.73933 -32.35913 q 0,-11.41624 -0.55113,-15.74654 -0.4724,-4.33029 -1.73212,-6.37734 -1.65339,-2.75565 -4.48776,-4.25157 -2.83438,-1.57465 -6.45608,-1.57465 -8.81806,0 -13.85695,6.84974 -5.0389,6.77101 -5.0389,18.81711 v 43.38171 h -28.18629 v -88.1806 h 28.18629 v 12.91216 q 6.37735,-7.71581 13.54202,-11.33751 7.16468,-3.70043 15.82527,-3.70043 15.27414,0 23.14741,9.36918 7.952,9.36919 7.952,27.24151 z"
     style="font-style:normal;font-variant:normal;font-weight:bold;font-stretch:normal;font-size:161.24452209px;font-family:sans-serif;-inkscape-font-specification:'sans-serif, Bold';font-variant-ligatures:normal;font-variant-caps:normal;font-variant-numeric:normal;font-feature-settings:normal;text-align:start;writing-mode:lr-tb;text-anchor:start;fill:#8b7e7f;fill-opacity:0.94117647;stroke-width:4.03111362"
     id="path976" /><path
     d="m 301.10379,81.53532 v 18.50218 h -15.58907 q -5.98368,0 -8.34566,2.20451 -2.36198,2.12579 -2.36198,7.47961 v 6.14115 h 24.0922 v 20.15556 h -24.0922 v 68.02504 h -28.1863 v -68.02504 h -14.01442 v -20.15556 h 14.01442 v -6.14115 q 0,-14.408081 8.03073,-21.257824 8.03074,-6.928476 24.87953,-6.928476 z"
     style="font-style:normal;font-variant:normal;font-weight:bold;font-stretch:normal;font-size:161.24452209px;font-family:sans-serif;-inkscape-font-specification:'sans-serif, Bold';font-variant-ligatures:normal;font-variant-caps:normal;font-variant-numeric:normal;font-feature-settings:normal;text-align:start;writing-mode:lr-tb;text-anchor:start;fill:#8b7e7f;fill-opacity:0.94117647;stroke-width:4.03111362"
     id="path978" /><path
     d="m 355.19314,133.89255 q -9.36918,0 -14.32934,6.77101 -4.88143,6.69228 -4.88143,19.36824 0,12.67596 4.88143,19.44697 4.96016,6.69228 14.32934,6.69228 9.21173,0 14.09315,-6.69228 4.88143,-6.77101 4.88143,-19.44697 0,-12.67596 -4.88143,-19.36824 -4.88142,-6.77101 -14.09315,-6.77101 z m 0,-20.15556 q 22.75375,0 35.50844,12.28229 12.83343,12.2823 12.83343,34.01252 0,21.73022 -12.83343,34.01252 -12.75469,12.28229 -35.50844,12.28229 -22.83247,0 -35.74463,-12.28229 -12.83343,-12.2823 -12.83343,-34.01252 0,-21.73022 12.83343,-34.01252 12.91216,-12.28229 35.74463,-12.28229 z"
     style="font-style:normal;font-variant:normal;font-weight:bold;font-stretch:normal;font-size:161.24452209px;font-family:sans-serif;-inkscape-font-specification:'sans-serif, Bold';font-variant-ligatures:normal;font-variant-caps:normal;font-variant-numeric:normal;font-feature-settings:normal;text-align:start;writing-mode:lr-tb;text-anchor:start;fill:#8b7e7f;fill-opacity:0.94117647;stroke-width:4.03111362"
     id="path980" /><path
     d="m 492.89659,118.61841 v 21.41529 q -9.05426,-3.77917 -17.47865,-5.66875 -8.4244,-1.88959 -15.904,-1.88959 -8.03074,0 -11.96737,2.04705 -3.8579,1.96832 -3.8579,6.14115 0,3.38551 2.91311,5.19636 2.99184,1.81085 10.62891,2.67691 l 4.96016,0.70859 q 21.65148,2.75565 29.13109,9.05426 7.4796,6.29861 7.4796,19.7619 0,14.09315 -10.39271,21.17909 -10.39272,7.08594 -31.02068,7.08594 -8.73932,0 -18.10851,-1.41719 -9.29046,-1.33845 -19.13204,-4.09409 v -21.41529 q 8.42439,4.0941 17.24245,6.14115 8.8968,2.04705 18.02979,2.04705 8.26693,0 12.43976,-2.28325 4.17283,-2.28325 4.17283,-6.77101 0,-3.77917 -2.91311,-5.59002 -2.83437,-1.88959 -11.41624,-2.91311 l -4.96015,-0.62986 q -18.81711,-2.36198 -26.37545,-8.73933 -7.55834,-6.37735 -7.55834,-19.36824 0,-14.01441 9.60539,-20.78542 9.60538,-6.77101 29.44602,-6.77101 7.79453,0 16.3764,1.18099 8.58186,1.18099 18.65964,3.70043 z"
     style="font-style:normal;font-variant:normal;font-weight:bold;font-stretch:normal;font-size:161.24452209px;font-family:sans-serif;-inkscape-font-specification:'sans-serif, Bold';font-variant-ligatures:normal;font-variant-caps:normal;font-variant-numeric:normal;font-feature-settings:normal;text-align:start;writing-mode:lr-tb;text-anchor:start;fill:#8b7e7f;fill-opacity:0.94117647;stroke-width:4.03111362"
     id="path982" /></g></svg>