<?xml version="1.0" encoding="UTF-8" standalone="no"?>
<!-- Generator: Adobe Illustrator 19.0.0, SVG Export Plug-In . SVG Version: 6.00 Build 0)  -->

<svg
   xmlns:dc="http://purl.org/dc/elements/1.1/"
   xmlns:cc="http://creativecommons.org/ns#"
   xmlns:rdf="http://www.w3.org/1999/02/22-rdf-syntax-ns#"
   xmlns:svg="http://www.w3.org/2000/svg"
   xmlns="http://www.w3.org/2000/svg"
   xmlns:sodipodi="http://sodipodi.sourceforge.net/DTD/sodipodi-0.dtd"
   xmlns:inkscape="http://www.inkscape.org/namespaces/inkscape"
   version="1.1"
   id="Capa_1"
   x="0px"
   y="0px"
   viewBox="0 0 386.10742 500.5293"
   xml:space="preserve"
   sodipodi:docname="paper.svg"
   inkscape:version="0.92.4 5da689c313, 2019-01-14"
   width="386.10742"
   height="500.5293"><metadata
   id="metadata893"><rdf:RDF><cc:Work
       rdf:about=""><dc:format>image/svg+xml</dc:format><dc:type
         rdf:resource="http://purl.org/dc/dcmitype/StillImage" /><dc:title /></cc:Work></rdf:RDF></metadata><defs
   id="defs891" /><sodipodi:namedview
   pagecolor="#ffffff"
   bordercolor="#666666"
   borderopacity="1"
   objecttolerance="10"
   gridtolerance="10"
   guidetolerance="10"
   inkscape:pageopacity="0"
   inkscape:pageshadow="2"
   inkscape:window-width="1920"
   inkscape:window-height="1143"
   id="namedview889"
   showgrid="false"
   inkscape:zoom="0.66742222"
   inkscape:cx="-80.333239"
   inkscape:cy="253.3036"
   inkscape:window-x="0"
   inkscape:window-y="28"
   inkscape:window-maximized="1"
   inkscape:current-layer="Capa_1"
   fit-margin-top="0"
   fit-margin-left="0"
   fit-margin-right="0"
   fit-margin-bottom="0" />
<path
   style="fill:#999999;fill-opacity:1;fill-rule:evenodd;stroke-width:0.94038284"
   d="m 10,10 c 0,163.50977 0,327.01953 0,490.5293 125.36914,0 250.73828,0 376.10742,0 0,-129.99544 0,-259.99089 0,-389.98633 -10.53902,-1.7167 -22.39808,-0.24655 -33.44531,-0.73633 -0.59752,-11.076924 1.19437,-23.143574 -0.89399,-33.602973 C 329.70023,54.135778 307.63234,32.067889 285.56445,10 193.70963,10 101.85482,10 10,10 Z"
   id="rect947"
   inkscape:connector-curvature="0" /><path
   style="fill:#ffffff;fill-opacity:1;fill-rule:evenodd;stroke-width:1.1509577"
   d="M 10 10 L 10 480.46484 L 366.06641 480.46484 L 366.06641 10 L 366 10 L 366 100 L 276 100 L 276 10 L 10 10 z "
   id="rect949" /><path
   style="fill:#40596f;fill-opacity:1;fill-rule:evenodd;stroke-width:1.24684477"
   d="m 0,0 c 0,163.33333 0,326.66667 0,490 125.33333,0 250.66667,0 376,0 0,-129.85417 0,-259.70833 0,-389.5625 -5.49069,-5.591644 -12.59791,-15.085929 -10,-1.149956 0,126.904156 0,253.808306 0,380.712456 -118.66667,0 -237.33333,0 -356,0 0,-156.66667 0,-313.33333 0,-470 91.85482,0 183.70963,0 275.56445,0 C 280.17471,4.5093077 275.45456,-2.5979113 266.71441,0 177.8096,0 88.904802,0 0,0 Z"
   id="rect895"
   inkscape:connector-curvature="0" />
<g
   id="g858"
   transform="translate(-56)">
</g>
<g
   id="g860"
   transform="translate(-56)">
</g>
<g
   id="g862"
   transform="translate(-56)">
</g>
<g
   id="g864"
   transform="translate(-56)">
</g>
<g
   id="g866"
   transform="translate(-56)">
</g>
<g
   id="g868"
   transform="translate(-56)">
</g>
<g
   id="g870"
   transform="translate(-56)">
</g>
<g
   id="g872"
   transform="translate(-56)">
</g>
<g
   id="g874"
   transform="translate(-56)">
</g>
<g
   id="g876"
   transform="translate(-56)">
</g>
<g
   id="g878"
   transform="translate(-56)">
</g>
<g
   id="g880"
   transform="translate(-56)">
</g>
<g
   id="g882"
   transform="translate(-56)">
</g>
<g
   id="g884"
   transform="translate(-56)">
</g>
<g
   id="g886"
   transform="translate(-56)">
</g>
<path
   style="fill:#40596b;fill-opacity:1;fill-rule:evenodd"
   d="M 276,0.43554688 C 276,33.623698 276,66.811849 276,100 c 33.1875,0 66.375,0 99.5625,0 C 342.375,66.811849 309.1875,33.623698 276,0.43554688 Z"
   id="rect902"
   inkscape:connector-curvature="0" /></svg>